<?xml version="1.0" encoding="UTF-8"?>
<!DOCTYPE svg PUBLIC "-//W3C//DTD SVG 1.1//EN" "http://www.w3.org/Graphics/SVG/1.1/DTD/svg11.dtd">
<svg xmlns="http://www.w3.org/2000/svg" version="1.1" width="1600px" height="1600px" style="shape-rendering:geometricPrecision; text-rendering:geometricPrecision; image-rendering:optimizeQuality; fill-rule:evenodd; clip-rule:evenodd" xmlns:xlink="http://www.w3.org/1999/xlink">
<g><path style="opacity:0.029" fill="#faf9f4" d="M 1278.5,776.5 C 1277.6,777.209 1277.26,778.209 1277.5,779.5C 1276.04,779.433 1274.71,779.766 1273.5,780.5C 1269.95,774.429 1266.12,768.429 1262,762.5C 1259.96,760.294 1257.8,758.294 1255.5,756.5C 1248.72,748.099 1240.39,741.599 1230.5,737C 1226.58,735.202 1222.58,733.702 1218.5,732.5C 1205.96,728.168 1192.96,727.335 1179.5,730C 1177.28,730.566 1175.28,731.4 1173.5,732.5C 1169.48,733.341 1165.82,735.008 1162.5,737.5C 1161.21,735.701 1161.21,734.035 1162.5,732.5C 1165.07,706.363 1161.73,681.03 1152.5,656.5C 1148.23,641.674 1142.23,627.674 1134.5,614.5C 1121.62,588.642 1105.62,564.975 1086.5,543.5C 1084.24,540.062 1081.74,536.729 1079,533.5C 1070.84,526.337 1063,518.837 1055.5,511C 1047.39,504.77 1039.06,498.77 1030.5,493C 1027.76,491.924 1025.1,490.757 1022.5,489.5C 1022.5,488.833 1022.17,488.5 1021.5,488.5C 1014.24,483.191 1006.57,478.358 998.5,474C 989.802,469.651 981.136,465.318 972.5,461C 967.91,459.202 963.243,457.702 958.5,456.5C 945.531,450.171 931.864,445.171 917.5,441.5C 915.167,440.833 912.833,440.167 910.5,439.5C 899.148,435.315 887.814,430.815 876.5,426C 873.198,424.974 869.865,424.14 866.5,423.5C 866.389,422.883 866.056,422.383 865.5,422C 856.815,419.163 848.148,416.33 839.5,413.5C 838.833,413.5 838.167,413.5 837.5,413.5C 821.711,407.351 806.044,401.018 790.5,394.5C 780.106,388.863 769.439,383.697 758.5,379C 751.929,374.245 745.262,369.745 738.5,365.5C 727.304,355.471 716.97,344.637 707.5,333C 706.1,331.562 704.433,330.729 702.5,330.5C 702.5,331.833 702.5,333.167 702.5,334.5C 700.833,334.5 699.167,334.5 697.5,334.5C 696.066,337.594 695.399,340.927 695.5,344.5C 695.505,346.696 695.838,348.696 696.5,350.5C 698.995,373 707.329,393 721.5,410.5C 705.197,412.322 688.53,413.155 671.5,413C 669.942,413.21 668.609,413.71 667.5,414.5C 652.553,416.427 638.553,421.261 625.5,429C 621.363,432.138 618.363,436.138 616.5,441C 616.645,441.772 616.978,442.439 617.5,443C 619.134,443.494 620.801,443.66 622.5,443.5C 623.923,444.449 625.423,445.449 627,446.5C 630.875,447.149 634.709,447.982 638.5,449C 641.598,450.816 644.598,452.816 647.5,455C 648.823,455.816 649.489,456.983 649.5,458.5C 638.586,463.364 628.586,469.697 619.5,477.5C 597.32,494.505 576.486,513.172 557,533.5C 551.762,538.99 547.262,544.99 543.5,551.5C 542.206,552.29 541.039,553.29 540,554.5C 530.92,566.669 523.42,579.669 517.5,593.5C 515.956,596.936 514.123,600.269 512,603.5C 508.892,614.377 505.225,625.044 501,635.5C 496.001,652.166 493.334,669.166 493,686.5C 490.829,683.335 487.995,681.002 484.5,679.5C 482.906,678.017 481.24,676.517 479.5,675C 474.768,673.534 470.102,671.867 465.5,670C 457.276,669.181 449.276,669.681 441.5,671.5C 433.211,673.48 425.544,676.813 418.5,681.5C 411.583,686.243 405.083,691.576 399,697.5C 394.333,703.5 389.667,709.5 385,715.5C 382.173,719.155 380.007,723.155 378.5,727.5C 369.919,741.222 364.252,756.222 361.5,772.5C 359.714,784.863 360.714,796.863 364.5,808.5C 369.208,828.918 378.875,846.585 393.5,861.5C 401.611,870.935 411.611,877.602 423.5,881.5C 426.437,883.656 429.771,885.156 433.5,886C 441.638,887.516 449.638,887.682 457.5,886.5C 463.863,885.326 470.196,883.993 476.5,882.5C 488.95,911.947 508.616,935.28 535.5,952.5C 538.61,955.432 541.944,958.265 545.5,961C 553.386,965.723 561.386,970.223 569.5,974.5C 569.5,974.833 569.5,975.167 569.5,975.5C 568.178,975.67 567.011,975.337 566,974.5C 564.811,976.233 563.644,977.9 562.5,979.5C 548.761,970.956 535.094,962.123 521.5,953C 510.987,941.987 500.32,931.154 489.5,920.5C 486.722,915.583 483.555,910.917 480,906.5C 477.68,901.534 475.514,896.534 473.5,891.5C 470.436,891.144 467.769,891.977 465.5,894C 454.833,894.667 444.167,894.667 433.5,894C 420.636,889.373 408.636,883.04 397.5,875C 365.411,846.829 351.244,811.329 355,768.5C 358.739,756.283 363.072,744.283 368,732.5C 381.27,707.232 399.77,686.732 423.5,671C 429.209,669.947 434.542,667.947 439.5,665C 450.508,663.027 461.508,663.027 472.5,665C 477.967,667.509 483.133,670.342 488,673.5C 488.333,668.5 488.667,663.5 489,658.5C 491.424,649.885 493.758,641.218 496,632.5C 496.667,631.833 497.333,631.167 498,630.5C 499.333,625.167 500.667,619.833 502,614.5C 504.093,611.956 505.093,608.956 505,605.5C 511.333,592.833 517.667,580.167 524,567.5C 530.235,560.461 535.569,552.794 540,544.5C 557.471,526.028 575.305,507.862 593.5,490C 599.777,486.712 605.111,482.379 609.5,477C 614.415,475.17 618.415,472.17 621.5,468C 627.803,465.027 633.803,461.694 639.5,458C 632.243,455.124 624.91,452.457 617.5,450C 611.544,446.608 609.711,441.775 612,435.5C 613.629,432.374 615.795,429.707 618.5,427.5C 623.778,424.793 628.778,421.627 633.5,418C 639.267,416.073 644.933,413.74 650.5,411C 655.466,411.045 660.132,410.045 664.5,408C 679.833,407.667 695.167,407.333 710.5,407C 707.637,402.812 704.803,398.646 702,394.5C 699.853,390.271 697.853,385.938 696,381.5C 693.666,372.192 691.332,362.858 689,353.5C 686.86,341.301 691.36,332.468 702.5,327C 704.833,326.333 707.167,326.333 709.5,327C 710.817,328.659 712.483,329.826 714.5,330.5C 724.319,340.819 734.319,350.986 744.5,361C 763.062,372.25 782.062,382.583 801.5,392C 808.876,393.67 815.542,396.67 821.5,401C 829.776,403.332 838.11,405.666 846.5,408C 860.648,414.826 875.315,420.159 890.5,424C 893.044,426.093 896.044,427.093 899.5,427C 902.5,428.667 905.5,430.333 908.5,432C 923.592,436.52 938.592,441.187 953.5,446C 960.403,450.04 967.736,453.04 975.5,455C 989.619,463.393 1004.29,470.726 1019.5,477C 1034.67,487.343 1049.67,497.843 1064.5,508.5C 1083.69,525.759 1100.19,545.425 1114,567.5C 1117.04,570.203 1119.7,573.203 1122,576.5C 1126.82,585.468 1132.15,594.135 1138,602.5C 1142.11,613.022 1147.11,623.022 1153,632.5C 1157.59,645.475 1161.92,658.475 1166,671.5C 1168.38,689.848 1170.88,708.181 1173.5,726.5C 1174.65,725.855 1175.65,725.022 1176.5,724C 1189.5,723.333 1202.5,723.333 1215.5,724C 1218.47,726.004 1221.81,727.004 1225.5,727C 1231.03,730.888 1237.03,733.888 1243.5,736C 1249.16,740.826 1255.16,745.16 1261.5,749C 1264.95,755.511 1269.28,761.344 1274.5,766.5C 1275.87,769.895 1277.2,773.229 1278.5,776.5 Z"/></g>
<g><path style="opacity:0.337" fill="#ab9179" d="M 702.5,334.5 C 701.647,336.893 699.981,338.226 697.5,338.5C 696.728,342.452 696.395,346.452 696.5,350.5C 695.838,348.696 695.505,346.696 695.5,344.5C 695.399,340.927 696.066,337.594 697.5,334.5C 699.167,334.5 700.833,334.5 702.5,334.5 Z"/></g>
<g><path style="opacity:1" fill="#ba6c4d" d="M 761.5,394.5 C 765.379,397.085 769.379,399.585 773.5,402C 803.496,415.123 834.496,426.457 866.5,436C 867.833,437 869.167,438 870.5,439C 903.873,449.672 936.873,461.338 969.5,474C 978.826,479.329 988.492,484.163 998.5,488.5C 1013.16,497.83 1027.82,507.163 1042.5,516.5C 1054.42,525.913 1065.58,536.246 1076,547.5C 1076.33,548.5 1076.67,549.5 1077,550.5C 1085.38,559.875 1093.38,569.542 1101,579.5C 1105.11,587.413 1109.94,594.746 1115.5,601.5C 1115.5,601.833 1115.5,602.167 1115.5,602.5C 1135.29,633.549 1147.79,667.549 1153,704.5C 1153.64,717.911 1153.3,731.245 1152,744.5C 1154.19,747.963 1157.36,749.296 1161.5,748.5C 1155.92,756.092 1149.92,763.425 1143.5,770.5C 1142.16,775.855 1139.33,780.188 1135,783.5C 1134.51,785.134 1134.34,786.801 1134.5,788.5C 1130.97,782.434 1127.13,776.434 1123,770.5C 1122.52,769.552 1122.35,768.552 1122.5,767.5C 1116.59,763.516 1110.93,759.016 1105.5,754C 1098.23,749.078 1090.23,746.245 1081.5,745.5C 1088.22,726.698 1090.05,707.365 1087,687.5C 1081.16,662.449 1071.66,638.782 1058.5,616.5C 1050.69,606.351 1041.69,597.684 1031.5,590.5C 1031.34,587.845 1030.34,585.512 1028.5,583.5C 1022.96,581.533 1017.3,580.033 1011.5,579C 1008.63,577.701 1006.79,575.535 1006,572.5C 1004.67,573.167 1003.33,573.833 1002,574.5C 993.653,569.392 984.653,567.059 975,567.5C 969.031,567.109 963.198,566.109 957.5,564.5C 953.5,565.833 949.5,565.833 945.5,564.5C 944.5,565 943.5,565.5 942.5,566C 930.429,566.203 918.429,567.203 906.5,569C 892.33,572.782 878.664,578.116 865.5,585C 865.833,585.333 866.167,585.667 866.5,586C 864.5,586.333 862.5,586.667 860.5,587C 856.958,591.206 852.791,594.706 848,597.5C 847.127,597.265 846.293,596.931 845.5,596.5C 840.055,603.481 834.222,610.147 828,616.5C 827.51,618.545 827.677,620.545 828.5,622.5C 825.322,628.677 822.322,635.011 819.5,641.5C 804.83,615.836 787.163,592.336 766.5,571C 761.298,568.472 756.631,565.139 752.5,561C 746.542,558.905 740.876,556.239 735.5,553C 729.846,552.207 724.513,550.541 719.5,548C 694.201,543.89 668.868,543.556 643.5,547C 637.133,548.874 630.799,550.874 624.5,553C 617.413,556.822 610.08,560.156 602.5,563C 584.888,575.111 570.221,589.944 558.5,607.5C 556.983,607.511 555.816,608.177 555,609.5C 551.269,614.967 548.602,620.967 547,627.5C 545.667,628.167 544.667,629.167 544,630.5C 542.124,639.212 539.457,647.545 536,655.5C 532.592,669.114 530.759,682.947 530.5,697C 531.53,707.267 532.697,717.767 534,728.5C 533.5,729 533,729.5 532.5,730C 521.541,729.14 512.208,732.473 504.5,740C 502.866,740.494 501.199,740.66 499.5,740.5C 499.665,736.818 499.499,733.152 499,729.5C 498.768,728.263 498.268,727.263 497.5,726.5C 494.83,719.827 492.163,713.16 489.5,706.5C 492.073,709.735 495.407,711.735 499.5,712.5C 500.442,712.392 501.275,712.059 502,711.5C 501.668,702.514 501.668,693.514 502,684.5C 503.892,673.48 505.892,662.48 508,651.5C 512.356,637.416 517.022,623.416 522,609.5C 525.989,604.573 528.655,598.907 530,592.5C 532.709,588.377 535.042,584.044 537,579.5C 543.351,572.643 548.684,564.976 553,556.5C 562.717,545.572 572.55,534.739 582.5,524C 588.613,518.77 594.946,513.77 601.5,509C 610.659,498.511 621.326,489.844 633.5,483C 640.746,475.468 649.412,469.802 659.5,466C 661.037,462.644 660.703,459.477 658.5,456.5C 659.325,455.614 660.325,455.281 661.5,455.5C 661.267,452.091 659.6,449.591 656.5,448C 651.344,443.996 645.677,440.83 639.5,438.5C 647.854,433.896 656.854,431.063 666.5,430C 676.139,428.968 685.806,428.301 695.5,428C 708.033,425.424 720.7,423.757 733.5,423C 736.216,422.218 738.55,420.884 740.5,419C 736.013,413.845 731.513,408.678 727,403.5C 722.231,395.733 717.898,387.733 714,379.5C 711.465,371.337 708.631,363.337 705.5,355.5C 706.189,353.556 706.689,351.556 707,349.5C 712.629,359.143 719.795,367.643 728.5,375C 731.167,376.333 733.833,377.667 736.5,379C 743.499,386.534 751.832,391.7 761.5,394.5 Z"/></g>
<g><path style="opacity:0.784" fill="#85664d" d="M 738.5,365.5 C 745.262,369.745 751.929,374.245 758.5,379C 769.439,383.697 780.106,388.863 790.5,394.5C 784.023,393.131 777.69,391.298 771.5,389C 768.213,387.3 765.213,385.134 762.5,382.5C 757.601,382.385 753.935,380.219 751.5,376C 748.997,375.871 746.997,374.871 745.5,373C 743.443,372.695 741.443,372.695 739.5,373C 738.565,370.619 738.232,368.119 738.5,365.5 Z"/></g>
<g><path style="opacity:0.686" fill="#8c6f56" d="M 790.5,394.5 C 806.044,401.018 821.711,407.351 837.5,413.5C 834.237,412.862 831.071,412.862 828,413.5C 824.08,411.399 819.914,409.732 815.5,408.5C 811.161,404.167 805.828,401.667 799.5,401C 796.986,399.243 794.319,397.743 791.5,396.5C 791.137,395.817 790.804,395.15 790.5,394.5 Z"/></g>
<g><path style="opacity:0.196" fill="#a0856d" d="M 721.5,410.5 C 722.267,411.172 722.934,412.005 723.5,413C 704.814,413.232 686.147,413.732 667.5,414.5C 668.609,413.71 669.942,413.21 671.5,413C 688.53,413.155 705.197,412.322 721.5,410.5 Z"/></g>
<g><path style="opacity:0.451" fill="#9b826b" d="M 839.5,413.5 C 848.148,416.33 856.815,419.163 865.5,422C 866.056,422.383 866.389,422.883 866.5,423.5C 863.161,423.11 859.827,422.61 856.5,422C 851.58,419.804 846.58,417.804 841.5,416C 840.244,415.583 839.577,414.75 839.5,413.5 Z"/></g>
<g><path style="opacity:0.906" fill="#826144" d="M 866.5,423.5 C 869.865,424.14 873.198,424.974 876.5,426C 887.814,430.815 899.148,435.315 910.5,439.5C 909.85,439.804 909.183,440.137 908.5,440.5C 900.201,435.967 891.534,434.8 882.5,437C 884.007,436.163 884.507,434.996 884,433.5C 882.506,434.747 881.006,434.747 879.5,433.5C 880.729,432.719 882.062,432.219 883.5,432C 878.431,429.566 873.098,428.066 867.5,427.5C 867.567,426.041 867.234,424.708 866.5,423.5 Z"/></g>
<g><path style="opacity:0.749" fill="#88715b" d="M 622.5,443.5 C 627.19,444.138 631.856,444.971 636.5,446C 640.833,448.167 645.167,450.333 649.5,452.5C 651.951,454.79 651.951,456.79 649.5,458.5C 649.489,456.983 648.823,455.816 647.5,455C 644.598,452.816 641.598,450.816 638.5,449C 634.709,447.982 630.875,447.149 627,446.5C 625.423,445.449 623.923,444.449 622.5,443.5 Z"/></g>
<g><path style="opacity:0.655" fill="#87684f" d="M 917.5,441.5 C 931.864,445.171 945.531,450.171 958.5,456.5C 952.745,454.424 946.745,453.257 940.5,453C 934.738,450.461 928.738,448.461 922.5,447C 921.157,444.768 919.49,442.934 917.5,441.5 Z"/></g>
<g><path style="opacity:0.651" fill="#85674e" d="M 958.5,456.5 C 963.243,457.702 967.91,459.202 972.5,461C 981.136,465.318 989.802,469.651 998.5,474C 1006.57,478.358 1014.24,483.191 1021.5,488.5C 1016.33,485.599 1010.66,483.432 1004.5,482C 1004.96,481.586 1005.29,481.086 1005.5,480.5C 1003.58,479.692 1001.58,479.192 999.5,479C 994.529,474.883 988.862,471.883 982.5,470C 976.937,464.552 970.271,461.219 962.5,460C 960.676,459.34 959.343,458.173 958.5,456.5 Z"/></g>
<g><path style="opacity:0.978" fill="#754e2d" d="M 619.5,477.5 C 617.107,481.402 614.107,484.902 610.5,488C 610.647,489.974 610.981,491.974 611.5,494C 608.666,496.184 607.332,495.684 607.5,492.5C 606.448,492.351 605.448,492.517 604.5,493C 605.783,495.795 605.783,498.628 604.5,501.5C 598.844,507.775 592.51,513.275 585.5,518C 582.843,520.959 580.176,523.959 577.5,527C 576.552,527.483 575.552,527.649 574.5,527.5C 573.833,529.5 573.167,531.5 572.5,533.5C 569.813,534.336 567.48,535.836 565.5,538C 560.986,543.219 556.153,548.719 551,554.5C 550.667,555.833 550.333,557.167 550,558.5C 543.971,563.52 539.638,569.854 537,577.5C 535.981,578.687 534.814,579.687 533.5,580.5C 530.572,586.782 527.739,593.115 525,599.5C 524.586,599.957 524.086,600.291 523.5,600.5C 521.24,597.831 519.906,594.831 519.5,591.5C 521.197,588.625 522.697,585.625 524,582.5C 526.652,581.41 528.152,579.41 528.5,576.5C 529.325,575.614 530.325,575.281 531.5,575.5C 532.869,571.758 534.536,568.091 536.5,564.5C 538.755,561.578 540.922,558.578 543,555.5C 543.49,554.207 543.657,552.873 543.5,551.5C 547.262,544.99 551.762,538.99 557,533.5C 576.486,513.172 597.32,494.505 619.5,477.5 Z"/></g>
<g><path style="opacity:0.941" fill="#7c5b41" d="M 1022.5,489.5 C 1025.1,490.757 1027.76,491.924 1030.5,493C 1039.06,498.77 1047.39,504.77 1055.5,511C 1063,518.837 1070.84,526.337 1079,533.5C 1081.74,536.729 1084.24,540.062 1086.5,543.5C 1083,540.834 1080,537.667 1077.5,534C 1075.76,533.349 1074.1,533.515 1072.5,534.5C 1070.83,532.49 1070.16,530.157 1070.5,527.5C 1066.27,527.594 1063.93,525.594 1063.5,521.5C 1060.08,521.872 1057.58,520.539 1056,517.5C 1055.59,517.957 1055.09,518.291 1054.5,518.5C 1052.08,513.077 1048.08,509.411 1042.5,507.5C 1041.54,505.082 1040.21,502.916 1038.5,501C 1034.35,499.619 1030.35,498.119 1026.5,496.5C 1026.76,495.022 1026.43,493.689 1025.5,492.5C 1023.79,492.121 1022.79,491.121 1022.5,489.5 Z"/></g>
<g><path style="opacity:1" fill="#dfba85" d="M 659.5,556.5 C 678.645,556.201 697.645,557.701 716.5,561C 725.721,563.614 734.721,566.781 743.5,570.5C 750.276,575.067 756.943,579.9 763.5,585C 784.548,606.303 801.215,630.47 813.5,657.5C 818.155,658.006 822.155,656.673 825.5,653.5C 831.475,641.552 837.975,629.885 845,618.5C 854.416,608.044 865.25,599.378 877.5,592.5C 909.483,578.62 942.816,574.453 977.5,580C 984.53,582.783 991.863,584.783 999.5,586C 1008.14,590.597 1016.81,595.097 1025.5,599.5C 1035.53,607.473 1044.69,616.473 1053,626.5C 1064.77,647.485 1072.77,669.819 1077,693.5C 1077.67,700.5 1077.67,707.5 1077,714.5C 1074.19,723.404 1071.52,732.404 1069,741.5C 1066.03,744.811 1065.69,748.477 1068,752.5C 1104.86,762.032 1126.52,785.699 1133,823.5C 1133.88,839.231 1133.21,854.898 1131,870.5C 1123.22,889.39 1112.89,906.723 1100,922.5C 1090.25,933.413 1080.09,943.747 1069.5,953.5C 1053.39,964.398 1036.72,974.564 1019.5,984C 997.074,994.584 974.408,1004.25 951.5,1013C 927.761,1017.94 903.761,1020.77 879.5,1021.5C 859.173,1022.15 838.84,1022.48 818.5,1022.5C 738.993,1019.3 663.326,1001.3 591.5,968.5C 581.807,964.038 572.141,959.204 562.5,954C 555.339,947.523 547.339,942.19 538.5,938C 529.026,929.195 519.526,920.361 510,911.5C 494.021,892.642 483.855,870.976 479.5,846.5C 478.449,835.189 478.283,823.855 479,812.5C 480.981,802.589 483.481,792.922 486.5,783.5C 493.469,767.753 504.802,756.253 520.5,749C 527.342,747.966 534.008,746.299 540.5,744C 540.81,740.607 542.476,738.107 545.5,736.5C 546.655,733.554 546.821,730.554 546,727.5C 542.661,714.372 541.661,701.038 543,687.5C 545.256,674.574 548.422,661.907 552.5,649.5C 557.149,640.186 561.315,630.519 565,620.5C 567.768,615.434 570.602,610.434 573.5,605.5C 580.294,598.536 586.961,591.369 593.5,584C 600.057,578.9 606.724,574.067 613.5,569.5C 628.017,562.328 643.351,557.995 659.5,556.5 Z"/></g>
<g><path style="opacity:0.635" fill="#8d6b50" d="M 543.5,551.5 C 543.657,552.873 543.49,554.207 543,555.5C 540.922,558.578 538.755,561.578 536.5,564.5C 534.536,568.091 532.869,571.758 531.5,575.5C 530.325,575.281 529.325,575.614 528.5,576.5C 528.152,579.41 526.652,581.41 524,582.5C 522.697,585.625 521.197,588.625 519.5,591.5C 519.5,592.833 518.833,593.5 517.5,593.5C 523.42,579.669 530.92,566.669 540,554.5C 541.039,553.29 542.206,552.29 543.5,551.5 Z"/></g>
<g><path style="opacity:0.918" fill="#7b5b42" d="M 1086.5,543.5 C 1105.62,564.975 1121.62,588.642 1134.5,614.5C 1133.28,613.972 1132.11,613.305 1131,612.5C 1129.31,606.48 1125.98,601.48 1121,597.5C 1120.81,595.423 1120.31,593.423 1119.5,591.5C 1118.26,590.754 1116.93,590.421 1115.5,590.5C 1115.77,588.62 1115.1,587.287 1113.5,586.5C 1110.57,583.917 1109.07,580.584 1109,576.5C 1106.43,573.099 1103.6,569.766 1100.5,566.5C 1098,565.062 1095.84,565.396 1094,567.5C 1093.33,566.5 1093.33,565.5 1094,564.5C 1094.92,564.07 1095.75,563.736 1096.5,563.5C 1094.01,559.502 1092.01,555.168 1090.5,550.5C 1089.31,549.571 1087.98,549.238 1086.5,549.5C 1086.5,547.5 1086.5,545.5 1086.5,543.5 Z"/></g>
<g><path style="opacity:0.992" fill="#744e2e" d="M 1113.5,586.5 C 1115.1,587.287 1115.77,588.62 1115.5,590.5C 1116.93,590.421 1118.26,590.754 1119.5,591.5C 1120.31,593.423 1120.81,595.423 1121,597.5C 1125.98,601.48 1129.31,606.48 1131,612.5C 1132.11,613.305 1133.28,613.972 1134.5,614.5C 1142.23,627.674 1148.23,641.674 1152.5,656.5C 1153.85,664.84 1155.18,673.173 1156.5,681.5C 1154.99,679.524 1154.16,677.191 1154,674.5C 1153.67,674.833 1153.33,675.167 1153,675.5C 1152.67,672.167 1152.33,668.833 1152,665.5C 1148.75,655.665 1145.75,645.331 1143,634.5C 1140.2,632.512 1138.37,629.845 1137.5,626.5C 1136.05,625.646 1134.72,624.646 1133.5,623.5C 1133.09,624.262 1132.92,625.262 1133,626.5C 1132.08,625.953 1131.24,625.287 1130.5,624.5C 1126.62,617.363 1122.45,610.363 1118,603.5C 1117.33,602.748 1116.5,602.414 1115.5,602.5C 1115.5,602.167 1115.5,601.833 1115.5,601.5C 1113.36,598.203 1112.03,594.536 1111.5,590.5C 1112.68,590.719 1113.68,590.386 1114.5,589.5C 1113.87,588.583 1113.54,587.583 1113.5,586.5 Z"/></g>
<g><path style="opacity:0.545" fill="#9c816a" d="M 484.5,679.5 C 477.187,675.937 469.521,673.437 461.5,672C 454.842,671.5 448.175,671.334 441.5,671.5C 449.276,669.681 457.276,669.181 465.5,670C 470.102,671.867 474.768,673.534 479.5,675C 481.24,676.517 482.906,678.017 484.5,679.5 Z"/></g>
<g><path style="opacity:0.733" fill="#907b68" d="M 1152.5,656.5 C 1161.73,681.03 1165.07,706.363 1162.5,732.5C 1162.67,725.159 1162.5,717.826 1162,710.5C 1161.81,707.964 1161.31,705.631 1160.5,703.5C 1160.36,695.819 1159.03,688.486 1156.5,681.5C 1155.18,673.173 1153.85,664.84 1152.5,656.5 Z"/></g>
<g><path style="opacity:0.643" fill="#886549" d="M 418.5,681.5 C 416.174,685.991 412.674,689.324 408,691.5C 406.878,693.42 406.044,695.42 405.5,697.5C 401.243,697.902 399.576,700.069 400.5,704C 397.271,704.356 395.771,706.19 396,709.5C 393.709,708.689 391.875,709.523 390.5,712C 390.957,712.414 391.291,712.914 391.5,713.5C 388.685,716.682 386.852,720.016 386,723.5C 382.962,724.028 380.462,725.362 378.5,727.5C 380.007,723.155 382.173,719.155 385,715.5C 389.667,709.5 394.333,703.5 399,697.5C 405.083,691.576 411.583,686.243 418.5,681.5 Z"/></g>
<g><path style="opacity:0.955" fill="#724826" d="M 1115.5,602.5 C 1116.5,602.414 1117.33,602.748 1118,603.5C 1122.45,610.363 1126.62,617.363 1130.5,624.5C 1131.24,625.287 1132.08,625.953 1133,626.5C 1132.92,625.262 1133.09,624.262 1133.5,623.5C 1134.72,624.646 1136.05,625.646 1137.5,626.5C 1138.37,629.845 1140.2,632.512 1143,634.5C 1145.75,645.331 1148.75,655.665 1152,665.5C 1152.33,668.833 1152.67,672.167 1153,675.5C 1153.33,675.167 1153.67,674.833 1154,674.5C 1154.16,677.191 1154.99,679.524 1156.5,681.5C 1159.03,688.486 1160.36,695.819 1160.5,703.5C 1160.78,716.228 1160.11,728.895 1158.5,741.5C 1161.13,740.578 1163.79,739.578 1166.5,738.5C 1167.25,737.624 1167.75,736.624 1168,735.5C 1168.69,736.357 1169.52,737.023 1170.5,737.5C 1171.7,737.154 1171.7,736.654 1170.5,736C 1174.5,734.486 1178.5,733.986 1182.5,734.5C 1180.58,735.308 1178.58,735.808 1176.5,736C 1179.1,736.791 1181.1,738.291 1182.5,740.5C 1175.28,742.355 1168.28,745.021 1161.5,748.5C 1157.36,749.296 1154.19,747.963 1152,744.5C 1153.3,731.245 1153.64,717.911 1153,704.5C 1147.79,667.549 1135.29,633.549 1115.5,602.5 Z"/></g>
<g><path style="opacity:0.373" fill="#9a7c64" d="M 1218.5,732.5 C 1210.85,731.339 1203.19,730.339 1195.5,729.5C 1188.09,729.982 1180.76,730.982 1173.5,732.5C 1175.28,731.4 1177.28,730.566 1179.5,730C 1192.96,727.335 1205.96,728.168 1218.5,732.5 Z"/></g>
<g><path style="opacity:0.957" fill="#765131" d="M 1160.5,703.5 C 1161.31,705.631 1161.81,707.964 1162,710.5C 1162.5,717.826 1162.67,725.159 1162.5,732.5C 1161.21,734.035 1161.21,735.701 1162.5,737.5C 1165.82,735.008 1169.48,733.341 1173.5,732.5C 1180.76,730.982 1188.09,729.982 1195.5,729.5C 1203.19,730.339 1210.85,731.339 1218.5,732.5C 1222.58,733.702 1226.58,735.202 1230.5,737C 1240.39,741.599 1248.72,748.099 1255.5,756.5C 1254.07,756.579 1252.74,756.246 1251.5,755.5C 1250.35,752.927 1248.68,750.761 1246.5,749C 1238.61,745.719 1231.28,741.385 1224.5,736C 1220.25,735.8 1216.08,735.3 1212,734.5C 1210.6,736.198 1208.76,736.698 1206.5,736C 1208.09,736.862 1209.75,737.529 1211.5,738C 1210.17,738.333 1208.83,738.667 1207.5,739C 1208.42,739.278 1209.08,739.778 1209.5,740.5C 1200.48,739.321 1191.48,739.321 1182.5,740.5C 1181.1,738.291 1179.1,736.791 1176.5,736C 1178.58,735.808 1180.58,735.308 1182.5,734.5C 1178.5,733.986 1174.5,734.486 1170.5,736C 1171.7,736.654 1171.7,737.154 1170.5,737.5C 1169.52,737.023 1168.69,736.357 1168,735.5C 1167.75,736.624 1167.25,737.624 1166.5,738.5C 1163.79,739.578 1161.13,740.578 1158.5,741.5C 1160.11,728.895 1160.78,716.228 1160.5,703.5 Z"/></g>
<g><path style="opacity:0.839" fill="#7f5c3e" d="M 378.5,727.5 C 378.414,728.496 378.748,729.329 379.5,730C 377.036,733.719 375.536,737.886 375,742.5C 372.288,744.623 371.121,747.457 371.5,751C 371.629,752.981 372.296,754.647 373.5,756C 370.308,759.16 367.975,762.493 366.5,766C 367.517,767.049 367.684,768.216 367,769.5C 366.683,767.699 366.016,767.366 365,768.5C 364.833,770.167 364.667,771.833 364.5,773.5C 364.613,775.641 365.28,777.475 366.5,779C 364.606,780.079 364.273,781.413 365.5,783C 364.149,786.678 363.482,790.511 363.5,794.5C 363.999,799.159 364.333,803.826 364.5,808.5C 360.714,796.863 359.714,784.863 361.5,772.5C 364.252,756.222 369.919,741.222 378.5,727.5 Z"/></g>
<g><path style="opacity:0.997" fill="#744a27" d="M 738.5,365.5 C 738.232,368.119 738.565,370.619 739.5,373C 741.443,372.695 743.443,372.695 745.5,373C 746.997,374.871 748.997,375.871 751.5,376C 753.935,380.219 757.601,382.385 762.5,382.5C 765.213,385.134 768.213,387.3 771.5,389C 777.69,391.298 784.023,393.131 790.5,394.5C 790.804,395.15 791.137,395.817 791.5,396.5C 794.319,397.743 796.986,399.243 799.5,401C 805.828,401.667 811.161,404.167 815.5,408.5C 819.914,409.732 824.08,411.399 828,413.5C 831.071,412.862 834.237,412.862 837.5,413.5C 838.167,413.5 838.833,413.5 839.5,413.5C 839.577,414.75 840.244,415.583 841.5,416C 846.58,417.804 851.58,419.804 856.5,422C 859.827,422.61 863.161,423.11 866.5,423.5C 867.234,424.708 867.567,426.041 867.5,427.5C 873.098,428.066 878.431,429.566 883.5,432C 882.062,432.219 880.729,432.719 879.5,433.5C 881.006,434.747 882.506,434.747 884,433.5C 884.507,434.996 884.007,436.163 882.5,437C 891.534,434.8 900.201,435.967 908.5,440.5C 909.183,440.137 909.85,439.804 910.5,439.5C 912.833,440.167 915.167,440.833 917.5,441.5C 919.49,442.934 921.157,444.768 922.5,447C 928.738,448.461 934.738,450.461 940.5,453C 946.745,453.257 952.745,454.424 958.5,456.5C 959.343,458.173 960.676,459.34 962.5,460C 970.271,461.219 976.937,464.552 982.5,470C 988.862,471.883 994.529,474.883 999.5,479C 1001.58,479.192 1003.58,479.692 1005.5,480.5C 1005.29,481.086 1004.96,481.586 1004.5,482C 1010.66,483.432 1016.33,485.599 1021.5,488.5C 1022.17,488.5 1022.5,488.833 1022.5,489.5C 1022.79,491.121 1023.79,492.121 1025.5,492.5C 1026.43,493.689 1026.76,495.022 1026.5,496.5C 1030.35,498.119 1034.35,499.619 1038.5,501C 1040.21,502.916 1041.54,505.082 1042.5,507.5C 1048.08,509.411 1052.08,513.077 1054.5,518.5C 1055.09,518.291 1055.59,517.957 1056,517.5C 1057.58,520.539 1060.08,521.872 1063.5,521.5C 1063.93,525.594 1066.27,527.594 1070.5,527.5C 1070.16,530.157 1070.83,532.49 1072.5,534.5C 1074.1,533.515 1075.76,533.349 1077.5,534C 1080,537.667 1083,540.834 1086.5,543.5C 1086.5,545.5 1086.5,547.5 1086.5,549.5C 1087.98,549.238 1089.31,549.571 1090.5,550.5C 1092.01,555.168 1094.01,559.502 1096.5,563.5C 1095.75,563.736 1094.92,564.07 1094,564.5C 1093.33,565.5 1093.33,566.5 1094,567.5C 1095.84,565.396 1098,565.062 1100.5,566.5C 1103.6,569.766 1106.43,573.099 1109,576.5C 1109.07,580.584 1110.57,583.917 1113.5,586.5C 1113.54,587.583 1113.87,588.583 1114.5,589.5C 1113.68,590.386 1112.68,590.719 1111.5,590.5C 1112.03,594.536 1113.36,598.203 1115.5,601.5C 1109.94,594.746 1105.11,587.413 1101,579.5C 1093.38,569.542 1085.38,559.875 1077,550.5C 1076.67,549.5 1076.33,548.5 1076,547.5C 1065.58,536.246 1054.42,525.913 1042.5,516.5C 1040.46,514.457 1038.8,512.124 1037.5,509.5C 1035.17,508 1032.83,506.5 1030.5,505C 1030.83,504.667 1031.17,504.333 1031.5,504C 1027.44,501.304 1023.11,499.137 1018.5,497.5C 1018,496.5 1017.5,495.5 1017,494.5C 1016.67,494.833 1016.33,495.167 1016,495.5C 1006.76,491.597 998.257,486.43 990.5,480C 986.485,480.127 983.151,478.793 980.5,476C 978.833,475.667 977.167,475.333 975.5,475C 969.223,471.049 962.723,467.549 956,464.5C 955.667,464.833 955.333,465.167 955,465.5C 943.038,461.707 931.204,457.541 919.5,453C 914.296,452.786 909.629,451.119 905.5,448C 890.831,444.83 876.997,439.664 864,432.5C 860.863,431.639 857.697,430.973 854.5,430.5C 854.5,429.5 854.5,428.5 854.5,427.5C 850.818,427.665 847.152,427.499 843.5,427C 842.167,426 840.833,425 839.5,424C 828.633,421.116 817.967,417.616 807.5,413.5C 806.102,411.202 804.269,410.536 802,411.5C 798.772,410.113 795.939,408.113 793.5,405.5C 787.276,402.139 779.942,399.639 771.5,398C 768.973,394.881 765.64,393.715 761.5,394.5C 751.832,391.7 743.499,386.534 736.5,379C 733.833,377.667 731.167,376.333 728.5,375C 719.795,367.643 712.629,359.143 707,349.5C 706.689,351.556 706.189,353.556 705.5,355.5C 708.631,363.337 711.465,371.337 714,379.5C 717.898,387.733 722.231,395.733 727,403.5C 731.513,408.678 736.013,413.845 740.5,419C 738.55,420.884 736.216,422.218 733.5,423C 720.7,423.757 708.033,425.424 695.5,428C 685.806,428.301 676.139,428.968 666.5,430C 656.854,431.063 647.854,433.896 639.5,438.5C 645.677,440.83 651.344,443.996 656.5,448C 659.6,449.591 661.267,452.091 661.5,455.5C 660.325,455.281 659.325,455.614 658.5,456.5C 660.703,459.477 661.037,462.644 659.5,466C 649.412,469.802 640.746,475.468 633.5,483C 621.326,489.844 610.659,498.511 601.5,509C 594.946,513.77 588.613,518.77 582.5,524C 572.55,534.739 562.717,545.572 553,556.5C 548.684,564.976 543.351,572.643 537,579.5C 535.042,584.044 532.709,588.377 530,592.5C 528.655,598.907 525.989,604.573 522,609.5C 517.022,623.416 512.356,637.416 508,651.5C 505.892,662.48 503.892,673.48 502,684.5C 501.668,693.514 501.668,702.514 502,711.5C 501.275,712.059 500.442,712.392 499.5,712.5C 495.407,711.735 492.073,709.735 489.5,706.5C 489.489,704.983 488.823,703.816 487.5,703C 483.252,700.757 479.586,697.757 476.5,694C 474.372,693.345 472.372,692.511 470.5,691.5C 461.427,686.83 451.76,685.33 441.5,687C 438.524,687.705 435.858,688.871 433.5,690.5C 416.747,700.587 403.747,714.254 394.5,731.5C 391.89,734.001 389.723,737.001 388,740.5C 384.815,748.921 381.482,757.255 378,765.5C 375.656,775.714 374.99,786.048 376,796.5C 376.156,799.191 376.989,801.524 378.5,803.5C 383.125,821.758 392.125,837.424 405.5,850.5C 408.468,854.135 411.802,857.468 415.5,860.5C 421.125,863.313 426.792,866.146 432.5,869C 438.24,870.22 443.906,871.386 449.5,872.5C 452.814,872.657 455.814,871.991 458.5,870.5C 462.331,870.584 465.998,869.917 469.5,868.5C 467.506,857.897 465.673,847.231 464,836.5C 460.807,808.123 467.473,782.456 484,759.5C 488.065,755.605 491.898,751.605 495.5,747.5C 496.167,747.167 496.833,746.833 497.5,746.5C 497.833,746.5 498.167,746.5 498.5,746.5C 509.213,736.746 521.88,732.08 536.5,732.5C 536.13,723.78 535.297,715.113 534,706.5C 533.333,696.5 533.333,686.5 534,676.5C 536.243,664.611 539.243,652.944 543,641.5C 548.17,630.122 553.337,618.789 558.5,607.5C 570.221,589.944 584.888,575.111 602.5,563C 610.08,560.156 617.413,556.822 624.5,553C 630.799,550.874 637.133,548.874 643.5,547C 668.868,543.556 694.201,543.89 719.5,548C 724.513,550.541 729.846,552.207 735.5,553C 740.876,556.239 746.542,558.905 752.5,561C 756.631,565.139 761.298,568.472 766.5,571C 787.163,592.336 804.83,615.836 819.5,641.5C 822.322,635.011 825.322,628.677 828.5,622.5C 833.887,615.099 839.887,608.099 846.5,601.5C 892.918,567.651 943.918,558.818 999.5,575C 1004.09,577.977 1009.09,579.977 1014.5,581C 1019.87,584.684 1025.53,587.85 1031.5,590.5C 1041.69,597.684 1050.69,606.351 1058.5,616.5C 1071.66,638.782 1081.16,662.449 1087,687.5C 1090.05,707.365 1088.22,726.698 1081.5,745.5C 1090.23,746.245 1098.23,749.078 1105.5,754C 1110.93,759.016 1116.59,763.516 1122.5,767.5C 1122.35,768.552 1122.52,769.552 1123,770.5C 1127.13,776.434 1130.97,782.434 1134.5,788.5C 1137.17,795.217 1139.34,802.217 1141,809.5C 1141.38,810.056 1141.88,810.389 1142.5,810.5C 1143.17,811.5 1143.83,812.5 1144.5,813.5C 1144.5,814.833 1144.5,816.167 1144.5,817.5C 1145.52,830.15 1145.68,842.817 1145,855.5C 1143,866.987 1140.5,878.32 1137.5,889.5C 1136.6,890.29 1135.93,891.29 1135.5,892.5C 1131.3,900.231 1126.8,907.898 1122,915.5C 1120.32,921.976 1122.48,926.643 1128.5,929.5C 1129.15,931.086 1129.65,932.753 1130,934.5C 1133.61,936.243 1136.78,938.576 1139.5,941.5C 1140.17,941.167 1140.83,940.833 1141.5,940.5C 1145.35,942.173 1149.35,943.339 1153.5,944C 1165.74,944.177 1177.91,944.677 1190,945.5C 1191.25,943.807 1192.75,942.473 1194.5,941.5C 1203.41,939.224 1212.07,936.057 1220.5,932C 1229,925.5 1237.5,919 1246,912.5C 1250.98,904.848 1255.98,897.181 1261,889.5C 1264.15,881.556 1266.98,873.556 1269.5,865.5C 1271.94,854.837 1272.94,844.004 1272.5,833C 1273.75,798.549 1260.42,771.716 1232.5,752.5C 1230.52,750.549 1228.19,749.049 1225.5,748C 1221.15,746.435 1216.81,744.935 1212.5,743.5C 1212.14,741.81 1211.14,740.81 1209.5,740.5C 1209.08,739.778 1208.42,739.278 1207.5,739C 1208.83,738.667 1210.17,738.333 1211.5,738C 1209.75,737.529 1208.09,736.862 1206.5,736C 1208.76,736.698 1210.6,736.198 1212,734.5C 1216.08,735.3 1220.25,735.8 1224.5,736C 1231.28,741.385 1238.61,745.719 1246.5,749C 1248.68,750.761 1250.35,752.927 1251.5,755.5C 1252.74,756.246 1254.07,756.579 1255.5,756.5C 1257.8,758.294 1259.96,760.294 1262,762.5C 1266.12,768.429 1269.95,774.429 1273.5,780.5C 1276.25,786.538 1278.25,792.871 1279.5,799.5C 1282.2,817.708 1283.2,836.042 1282.5,854.5C 1282.31,859.37 1281.64,864.036 1280.5,868.5C 1277.91,869.254 1276.08,870.921 1275,873.5C 1274.67,876.833 1274.33,880.167 1274,883.5C 1273.53,885.779 1272.53,887.779 1271,889.5C 1270.5,891.473 1270.34,893.473 1270.5,895.5C 1269.32,895.281 1268.32,895.614 1267.5,896.5C 1266.32,899.096 1264.99,901.596 1263.5,904C 1264.06,904.383 1264.39,904.883 1264.5,905.5C 1262.98,905.511 1261.82,906.177 1261,907.5C 1260.38,909.754 1259.04,911.421 1257,912.5C 1256.52,913.448 1256.35,914.448 1256.5,915.5C 1255.02,915.238 1253.69,915.571 1252.5,916.5C 1248.59,923.993 1243.09,929.993 1236,934.5C 1235.52,935.448 1235.35,936.448 1235.5,937.5C 1225.11,941.36 1214.77,945.527 1204.5,950C 1202.87,950.494 1201.2,950.66 1199.5,950.5C 1199.5,951.5 1199.5,952.5 1199.5,953.5C 1187.66,955.001 1175.83,956.335 1164,957.5C 1157.91,956.688 1151.75,956.188 1145.5,956C 1138.93,953.853 1132.6,951.187 1126.5,948C 1124.17,947.667 1121.83,947.333 1119.5,947C 1115.5,944.85 1112.16,942.016 1109.5,938.5C 1108.83,937.5 1108.17,936.5 1107.5,935.5C 1107.58,933.748 1106.75,932.748 1105,932.5C 1103.44,933.029 1101.94,933.696 1100.5,934.5C 1099.4,936.389 1098.06,938.055 1096.5,939.5C 1091.49,936.56 1090.16,938.06 1092.5,944C 1091.2,948.457 1088.2,950.957 1083.5,951.5C 1078.52,949.997 1073.85,950.664 1069.5,953.5C 1080.09,943.747 1090.25,933.413 1100,922.5C 1112.89,906.723 1123.22,889.39 1131,870.5C 1133.21,854.898 1133.88,839.231 1133,823.5C 1126.52,785.699 1104.86,762.032 1068,752.5C 1065.69,748.477 1066.03,744.811 1069,741.5C 1071.52,732.404 1074.19,723.404 1077,714.5C 1077.67,707.5 1077.67,700.5 1077,693.5C 1072.77,669.819 1064.77,647.485 1053,626.5C 1044.69,616.473 1035.53,607.473 1025.5,599.5C 1021.84,596.68 1018.18,593.68 1014.5,590.5C 1016.15,589.012 1018.15,588.012 1020.5,587.5C 1019.61,586.41 1018.61,586.41 1017.5,587.5C 1016.5,586.167 1015.5,584.833 1014.5,583.5C 1013.83,583.833 1013.17,584.167 1012.5,584.5C 1009.69,583.03 1006.69,582.197 1003.5,582C 1004.52,580.633 1004.02,579.8 1002,579.5C 999.636,580.512 998.302,581.845 998,583.5C 991.053,582.073 984.22,580.24 977.5,578C 963.838,577.047 950.172,576.214 936.5,575.5C 931.319,576.42 926.153,577.42 921,578.5C 917.795,577.644 914.461,576.644 911,575.5C 910.667,576.5 910.333,577.5 910,578.5C 908.186,577.24 906.353,577.24 904.5,578.5C 905.902,579.842 905.569,580.676 903.5,581C 897.48,582.4 891.48,583.9 885.5,585.5C 882.314,587.397 879.647,589.731 877.5,592.5C 865.25,599.378 854.416,608.044 845,618.5C 837.975,629.885 831.475,641.552 825.5,653.5C 822.155,656.673 818.155,658.006 813.5,657.5C 801.215,630.47 784.548,606.303 763.5,585C 756.943,579.9 750.276,575.067 743.5,570.5C 741.404,567.174 738.404,565.008 734.5,564C 709.852,556.917 684.852,554.417 659.5,556.5C 643.351,557.995 628.017,562.328 613.5,569.5C 609.672,568.586 607.005,570.086 605.5,574C 603.444,574.311 601.444,574.811 599.5,575.5C 598.614,576.325 598.281,577.325 598.5,578.5C 596.005,579.199 593.672,580.199 591.5,581.5C 585.555,590.301 578.555,598.467 570.5,606C 570.833,606.333 571.167,606.667 571.5,607C 570.552,607.483 569.552,607.649 568.5,607.5C 566.832,611.967 564.499,616.134 561.5,620C 562.308,620.308 562.975,620.808 563.5,621.5C 559.629,624.576 557.962,628.576 558.5,633.5C 553.334,633.754 552.667,635.254 556.5,638C 554.487,641.505 553.154,645.338 552.5,649.5C 548.422,661.907 545.256,674.574 543,687.5C 541.661,701.038 542.661,714.372 546,727.5C 546.821,730.554 546.655,733.554 545.5,736.5C 542.476,738.107 540.81,740.607 540.5,744C 534.008,746.299 527.342,747.966 520.5,749C 504.802,756.253 493.469,767.753 486.5,783.5C 480.782,792.163 477.615,801.829 477,812.5C 476.333,820.5 476.333,828.5 477,836.5C 477.149,840.133 477.982,843.466 479.5,846.5C 483.855,870.976 494.021,892.642 510,911.5C 519.526,920.361 529.026,929.195 538.5,938C 547.339,942.19 555.339,947.523 562.5,954C 572.141,959.204 581.807,964.038 591.5,968.5C 586.614,967.711 581.948,966.378 577.5,964.5C 573.643,964.029 571.643,965.695 571.5,969.5C 572.5,969.5 573.5,969.5 574.5,969.5C 574.759,973.068 576.759,974.401 580.5,973.5C 580.433,974.959 580.766,976.292 581.5,977.5C 574.925,974.795 568.925,970.962 563.5,966C 558.809,962.805 554.142,960.638 549.5,959.5C 547.436,959.313 545.436,958.813 543.5,958C 543.957,957.586 544.291,957.086 544.5,956.5C 542.855,955.304 541.189,954.304 539.5,953.5C 539.649,952.448 539.483,951.448 539,950.5C 535.633,949.233 532.466,947.566 529.5,945.5C 528.614,944.675 528.281,943.675 528.5,942.5C 525.548,940.357 522.215,938.691 518.5,937.5C 517.695,935.085 516.695,932.751 515.5,930.5C 513.5,929.5 511.5,928.5 509.5,927.5C 507.94,923.106 504.94,920.272 500.5,919C 493.628,909.448 487.294,898.948 481.5,887.5C 479.667,885.851 478,884.184 476.5,882.5C 475.878,881.373 475.045,880.373 474,879.5C 470.27,881.372 466.437,882.872 462.5,884C 459.333,884.167 456.167,884.333 453,884.5C 444.738,884.06 436.571,882.894 428.5,881C 425.645,880.051 423.311,878.384 421.5,876C 411.609,875.41 403.942,871.077 398.5,863C 396.846,862.392 395.179,861.892 393.5,861.5C 378.875,846.585 369.208,828.918 364.5,808.5C 364.333,803.826 363.999,799.159 363.5,794.5C 363.482,790.511 364.149,786.678 365.5,783C 364.273,781.413 364.606,780.079 366.5,779C 365.28,777.475 364.613,775.641 364.5,773.5C 364.667,771.833 364.833,770.167 365,768.5C 366.016,767.366 366.683,767.699 367,769.5C 367.684,768.216 367.517,767.049 366.5,766C 367.975,762.493 370.308,759.16 373.5,756C 372.296,754.647 371.629,752.981 371.5,751C 371.121,747.457 372.288,744.623 375,742.5C 375.536,737.886 377.036,733.719 379.5,730C 378.748,729.329 378.414,728.496 378.5,727.5C 380.462,725.362 382.962,724.028 386,723.5C 386.852,720.016 388.685,716.682 391.5,713.5C 391.291,712.914 390.957,712.414 390.5,712C 391.875,709.523 393.709,708.689 396,709.5C 395.771,706.19 397.271,704.356 400.5,704C 399.576,700.069 401.243,697.902 405.5,697.5C 406.044,695.42 406.878,693.42 408,691.5C 412.674,689.324 416.174,685.991 418.5,681.5C 425.544,676.813 433.211,673.48 441.5,671.5C 448.175,671.334 454.842,671.5 461.5,672C 469.521,673.437 477.187,675.937 484.5,679.5C 487.995,681.002 490.829,683.335 493,686.5C 493.334,669.166 496.001,652.166 501,635.5C 505.225,625.044 508.892,614.377 512,603.5C 514.123,600.269 515.956,596.936 517.5,593.5C 518.833,593.5 519.5,592.833 519.5,591.5C 519.906,594.831 521.24,597.831 523.5,600.5C 524.086,600.291 524.586,599.957 525,599.5C 527.739,593.115 530.572,586.782 533.5,580.5C 534.814,579.687 535.981,578.687 537,577.5C 539.638,569.854 543.971,563.52 550,558.5C 550.333,557.167 550.667,555.833 551,554.5C 556.153,548.719 560.986,543.219 565.5,538C 567.48,535.836 569.813,534.336 572.5,533.5C 573.167,531.5 573.833,529.5 574.5,527.5C 575.552,527.649 576.552,527.483 577.5,527C 580.176,523.959 582.843,520.959 585.5,518C 592.51,513.275 598.844,507.775 604.5,501.5C 605.783,498.628 605.783,495.795 604.5,493C 605.448,492.517 606.448,492.351 607.5,492.5C 607.332,495.684 608.666,496.184 611.5,494C 610.981,491.974 610.647,489.974 610.5,488C 614.107,484.902 617.107,481.402 619.5,477.5C 628.586,469.697 638.586,463.364 649.5,458.5C 651.951,456.79 651.951,454.79 649.5,452.5C 645.167,450.333 640.833,448.167 636.5,446C 631.856,444.971 627.19,444.138 622.5,443.5C 620.801,443.66 619.134,443.494 617.5,443C 616.978,442.439 616.645,441.772 616.5,441C 618.363,436.138 621.363,432.138 625.5,429C 638.553,421.261 652.553,416.427 667.5,414.5C 686.147,413.732 704.814,413.232 723.5,413C 722.934,412.005 722.267,411.172 721.5,410.5C 707.329,393 698.995,373 696.5,350.5C 696.395,346.452 696.728,342.452 697.5,338.5C 699.981,338.226 701.647,336.893 702.5,334.5C 702.5,333.167 702.5,331.833 702.5,330.5C 704.433,330.729 706.1,331.562 707.5,333C 716.97,344.637 727.304,355.471 738.5,365.5 Z"/></g>
<g><path style="opacity:1" fill="#784f29" d="M 729.5,811.5 C 728.737,812.268 727.737,812.768 726.5,813C 726.957,813.414 727.291,813.914 727.5,814.5C 724.045,814.961 720.878,815.961 718,817.5C 717.667,817.167 717.333,816.833 717,816.5C 717.077,817.738 716.911,818.738 716.5,819.5C 715.914,819.291 715.414,818.957 715,818.5C 712.931,819.264 710.764,819.764 708.5,820C 711.028,820.669 711.028,821.502 708.5,822.5C 702.53,818.604 702.197,819.104 707.5,824C 705.714,824.196 704.381,825.029 703.5,826.5C 705.192,827.969 707.192,828.635 709.5,828.5C 712.723,827.8 715.89,826.8 719,825.5C 720.667,825.833 722.333,826.167 724,826.5C 726.814,823.833 729.98,823.166 733.5,824.5C 700.82,834.75 667.154,838.583 632.5,836C 627.843,835.588 623.509,834.421 619.5,832.5C 604.939,830.812 593.439,824.146 585,812.5C 572.776,788.397 580.276,776.064 607.5,775.5C 607.649,776.552 607.483,777.552 607,778.5C 601.667,782.5 597,787.167 593,792.5C 593.131,799.656 596.297,805.156 602.5,809C 623.918,819.562 646.584,823.229 670.5,820C 681.208,819.421 691.874,818.421 702.5,817C 711.467,814.973 720.467,813.14 729.5,811.5 Z"/></g>
<g><path style="opacity:1" fill="#ba9264" d="M 486.5,783.5 C 483.481,792.922 480.981,802.589 479,812.5C 478.283,823.855 478.449,835.189 479.5,846.5C 477.982,843.466 477.149,840.133 477,836.5C 476.333,828.5 476.333,820.5 477,812.5C 477.615,801.829 480.782,792.163 486.5,783.5 Z"/></g>
<g><path style="opacity:1" fill="#b68c5f" d="M 394.5,731.5 C 391.999,738.167 388.832,744.501 385,750.5C 382.23,758.982 379.897,767.649 378,776.5C 377.401,785.516 377.568,794.516 378.5,803.5C 376.989,801.524 376.156,799.191 376,796.5C 374.99,786.048 375.656,775.714 378,765.5C 381.482,757.255 384.815,748.921 388,740.5C 389.723,737.001 391.89,734.001 394.5,731.5 Z"/></g>
<g><path style="opacity:1" fill="#6e4520" d="M 814.5,782.5 C 812.712,782.785 811.045,782.452 809.5,781.5C 808.917,779.998 808.084,778.665 807,777.5C 806.824,782.589 804.824,783.589 801,780.5C 800.167,780.833 799.333,781.167 798.5,781.5C 800.369,782.624 802.369,783.457 804.5,784C 802.59,785.701 801.423,787.867 801,790.5C 800.333,789.167 799.667,789.167 799,790.5C 798.505,792.473 798.338,794.473 798.5,796.5C 799.833,796.5 801.167,796.5 802.5,796.5C 802.5,798.167 802.5,799.833 802.5,801.5C 797.074,800.96 793.907,797.96 793,792.5C 792.751,793.624 792.251,794.624 791.5,795.5C 791.089,794.738 790.923,793.738 791,792.5C 789.509,794.004 787.676,794.837 785.5,795C 785.5,796 785.5,797 785.5,798C 784.552,798.483 783.552,798.649 782.5,798.5C 782.5,799.5 782.5,800.5 782.5,801.5C 778.403,804.082 774.403,806.915 770.5,810C 758.419,815.37 746.086,820.203 733.5,824.5C 729.98,823.166 726.814,823.833 724,826.5C 722.333,826.167 720.667,825.833 719,825.5C 715.89,826.8 712.723,827.8 709.5,828.5C 707.192,828.635 705.192,827.969 703.5,826.5C 704.381,825.029 705.714,824.196 707.5,824C 702.197,819.104 702.53,818.604 708.5,822.5C 711.028,821.502 711.028,820.669 708.5,820C 710.764,819.764 712.931,819.264 715,818.5C 715.414,818.957 715.914,819.291 716.5,819.5C 716.911,818.738 717.077,817.738 717,816.5C 717.333,816.833 717.667,817.167 718,817.5C 720.878,815.961 724.045,814.961 727.5,814.5C 727.291,813.914 726.957,813.414 726.5,813C 727.737,812.768 728.737,812.268 729.5,811.5C 746.583,805.542 762.75,797.542 778,787.5C 770.611,778.937 764.778,769.104 760.5,758C 760.667,756.833 760.833,755.667 761,754.5C 770.515,747.123 781.348,744.29 793.5,746C 803.974,747.604 813.974,750.604 823.5,755C 829.035,760.44 829.868,766.607 826,773.5C 822.59,777.112 818.756,780.112 814.5,782.5 Z"/></g>
<g><path style="opacity:1" fill="#dcb37f" d="M 1232.5,752.5 C 1260.42,771.716 1273.75,798.549 1272.5,833C 1272.94,844.004 1271.94,854.837 1269.5,865.5C 1268.34,866.456 1267.17,867.456 1266,868.5C 1264.59,867.077 1263.42,867.244 1262.5,869C 1264.28,870.067 1264.78,871.567 1264,873.5C 1261.04,876.241 1259.04,879.574 1258,883.5C 1257.67,882.833 1257.33,882.167 1257,881.5C 1256.18,883.788 1255.51,886.122 1255,888.5C 1246.58,897.376 1238.75,906.043 1231.5,914.5C 1230.15,915.95 1228.48,916.617 1226.5,916.5C 1226.65,917.552 1226.48,918.552 1226,919.5C 1223.67,919.956 1221.84,921.623 1220.5,924.5C 1215.96,925.95 1211.29,926.783 1206.5,927C 1208.04,927.29 1209.38,927.956 1210.5,929C 1208.22,929.212 1206.22,930.045 1204.5,931.5C 1203.55,931.013 1202.55,930.68 1201.5,930.5C 1192.79,934.051 1183.79,936.718 1174.5,938.5C 1172.75,936.469 1170.75,936.135 1168.5,937.5C 1165.63,936.878 1162.8,936.211 1160,935.5C 1159.67,936.167 1159.33,936.833 1159,937.5C 1156.68,933.585 1153.18,931.585 1148.5,931.5C 1141.76,925.784 1139.1,918.617 1140.5,910C 1137.52,906.638 1135.18,902.805 1133.5,898.5C 1134.37,896.55 1135.04,894.55 1135.5,892.5C 1135.93,891.29 1136.6,890.29 1137.5,889.5C 1144.89,873.888 1148.23,857.221 1147.5,839.5C 1147.33,835.167 1147.17,830.833 1147,826.5C 1146.8,823.203 1145.96,820.203 1144.5,817.5C 1144.5,816.167 1144.5,814.833 1144.5,813.5C 1143.66,809.678 1143.66,805.012 1144.5,799.5C 1147.39,799.78 1148.89,798.447 1149,795.5C 1149.33,796.833 1149.67,798.167 1150,799.5C 1151.07,798.809 1152.23,798.309 1153.5,798C 1155.97,794.07 1157.64,789.904 1158.5,785.5C 1159.55,785.649 1160.55,785.483 1161.5,785C 1162.83,784.333 1162.83,783.667 1161.5,783C 1165.47,779.847 1169.14,776.347 1172.5,772.5C 1176.74,771.394 1179.74,768.894 1181.5,765C 1189.5,759.819 1197.84,755.319 1206.5,751.5C 1209.51,750.252 1212.51,750.252 1215.5,751.5C 1217.59,750.229 1219.75,749.229 1222,748.5C 1222.83,748.667 1223.67,748.833 1224.5,749C 1224.93,749.92 1225.26,750.753 1225.5,751.5C 1226.17,751.167 1226.83,750.833 1227.5,750.5C 1229.08,751.456 1230.74,752.123 1232.5,752.5 Z"/></g>
<g><path style="opacity:1" fill="#cc956a" d="M 1209.5,740.5 C 1211.14,740.81 1212.14,741.81 1212.5,743.5C 1205.52,741.572 1198.52,741.405 1191.5,743C 1184.28,746.761 1178.61,752.094 1174.5,759C 1165.15,763.535 1158.15,770.535 1153.5,780C 1153.83,780.333 1154.17,780.667 1154.5,781C 1149.99,787.022 1145.99,793.355 1142.5,800C 1141.49,803.477 1141.49,806.977 1142.5,810.5C 1141.88,810.389 1141.38,810.056 1141,809.5C 1139.34,802.217 1137.17,795.217 1134.5,788.5C 1134.34,786.801 1134.51,785.134 1135,783.5C 1139.33,780.188 1142.16,775.855 1143.5,770.5C 1149.92,763.425 1155.92,756.092 1161.5,748.5C 1168.28,745.021 1175.28,742.355 1182.5,740.5C 1191.48,739.321 1200.48,739.321 1209.5,740.5 Z"/></g>
<g><path style="opacity:1" fill="#d6a877" d="M 1212.5,743.5 C 1216.81,744.935 1221.15,746.435 1225.5,748C 1228.19,749.049 1230.52,750.549 1232.5,752.5C 1230.74,752.123 1229.08,751.456 1227.5,750.5C 1226.83,750.833 1226.17,751.167 1225.5,751.5C 1225.26,750.753 1224.93,749.92 1224.5,749C 1223.67,748.833 1222.83,748.667 1222,748.5C 1219.75,749.229 1217.59,750.229 1215.5,751.5C 1212.51,750.252 1209.51,750.252 1206.5,751.5C 1197.84,755.319 1189.5,759.819 1181.5,765C 1179.74,768.894 1176.74,771.394 1172.5,772.5C 1169.14,776.347 1165.47,779.847 1161.5,783C 1162.83,783.667 1162.83,784.333 1161.5,785C 1160.55,785.483 1159.55,785.649 1158.5,785.5C 1157.64,789.904 1155.97,794.07 1153.5,798C 1152.23,798.309 1151.07,798.809 1150,799.5C 1149.67,798.167 1149.33,796.833 1149,795.5C 1148.89,798.447 1147.39,799.78 1144.5,799.5C 1143.66,805.012 1143.66,809.678 1144.5,813.5C 1143.83,812.5 1143.17,811.5 1142.5,810.5C 1141.49,806.977 1141.49,803.477 1142.5,800C 1145.99,793.355 1149.99,787.022 1154.5,781C 1154.17,780.667 1153.83,780.333 1153.5,780C 1158.15,770.535 1165.15,763.535 1174.5,759C 1178.61,752.094 1184.28,746.761 1191.5,743C 1198.52,741.405 1205.52,741.572 1212.5,743.5 Z"/></g>
<g><path style="opacity:1" fill="#c78a61" d="M 470.5,691.5 C 472.372,692.511 474.372,693.345 476.5,694C 479.586,697.757 483.252,700.757 487.5,703C 488.823,703.816 489.489,704.983 489.5,706.5C 492.163,713.16 494.83,719.827 497.5,726.5C 498.331,733.131 498.664,739.798 498.5,746.5C 498.167,746.5 497.833,746.5 497.5,746.5C 495.681,738.621 494.515,730.621 494,722.5C 492.833,720.667 491.333,719.167 489.5,718C 490.072,713.684 489.072,709.517 486.5,705.5C 481.775,701.439 476.775,697.772 471.5,694.5C 470.614,693.675 470.281,692.675 470.5,691.5 Z"/></g>
<g><path style="opacity:1" fill="#6e4520" d="M 919.5,697.5 C 925.46,696.922 930.793,698.422 935.5,702C 938.522,705.214 940.022,709.048 940,713.5C 941.696,725.227 938.529,735.393 930.5,744C 926.167,747.333 921.833,747.333 917.5,744C 905.29,733.391 903.124,720.891 911,706.5C 913.362,702.973 916.196,699.973 919.5,697.5 Z"/></g>
<g><path style="opacity:1" fill="#d3a373" d="M 470.5,691.5 C 470.281,692.675 470.614,693.675 471.5,694.5C 476.775,697.772 481.775,701.439 486.5,705.5C 489.072,709.517 490.072,713.684 489.5,718C 491.333,719.167 492.833,720.667 494,722.5C 494.515,730.621 495.681,738.621 497.5,746.5C 496.833,746.833 496.167,747.167 495.5,747.5C 492.426,741.01 489.593,734.343 487,727.5C 486.333,726.167 485.667,726.167 485,727.5C 483.505,722.5 481.005,718.166 477.5,714.5C 471.628,710.548 465.628,706.048 459.5,701C 456.344,696.259 452.011,693.259 446.5,692C 445.953,691.075 445.287,690.242 444.5,689.5C 443.312,690.84 441.812,691.507 440,691.5C 437.863,690.923 435.696,690.59 433.5,690.5C 435.858,688.871 438.524,687.705 441.5,687C 451.76,685.33 461.427,686.83 470.5,691.5 Z"/></g>
<g><path style="opacity:1" fill="#6e4520" d="M 685.5,681.5 C 696.229,680.387 703.062,685.054 706,695.5C 707.395,704.546 706.229,713.213 702.5,721.5C 697.177,726.665 691.011,728.665 684,727.5C 679.729,723.297 676.729,718.297 675,712.5C 674.199,705.111 674.533,697.777 676,690.5C 678.406,686.592 681.572,683.592 685.5,681.5 Z"/></g>
<g><path style="opacity:1" fill="#ddb581" d="M 495.5,747.5 C 491.898,751.605 488.065,755.605 484,759.5C 467.473,782.456 460.807,808.123 464,836.5C 465.673,847.231 467.506,857.897 469.5,868.5C 465.998,869.917 462.331,870.584 458.5,870.5C 450.219,871.171 442.219,870.005 434.5,867C 423.899,862.844 414.232,857.344 405.5,850.5C 392.125,837.424 383.125,821.758 378.5,803.5C 377.568,794.516 377.401,785.516 378,776.5C 379.897,767.649 382.23,758.982 385,750.5C 388.832,744.501 391.999,738.167 394.5,731.5C 403.747,714.254 416.747,700.587 433.5,690.5C 435.696,690.59 437.863,690.923 440,691.5C 441.812,691.507 443.312,690.84 444.5,689.5C 445.287,690.242 445.953,691.075 446.5,692C 452.011,693.259 456.344,696.259 459.5,701C 465.628,706.048 471.628,710.548 477.5,714.5C 481.005,718.166 483.505,722.5 485,727.5C 485.667,726.167 486.333,726.167 487,727.5C 489.593,734.343 492.426,741.01 495.5,747.5 Z"/></g>
<g><path style="opacity:1" fill="#ad6d4a" d="M 558.5,607.5 C 553.337,618.789 548.17,630.122 543,641.5C 539.243,652.944 536.243,664.611 534,676.5C 533.333,686.5 533.333,696.5 534,706.5C 535.297,715.113 536.13,723.78 536.5,732.5C 521.88,732.08 509.213,736.746 498.5,746.5C 498.664,739.798 498.331,733.131 497.5,726.5C 498.268,727.263 498.768,728.263 499,729.5C 499.499,733.152 499.665,736.818 499.5,740.5C 501.199,740.66 502.866,740.494 504.5,740C 512.208,732.473 521.541,729.14 532.5,730C 533,729.5 533.5,729 534,728.5C 532.697,717.767 531.53,707.267 530.5,697C 530.759,682.947 532.592,669.114 536,655.5C 539.457,647.545 542.124,639.212 544,630.5C 544.667,629.167 545.667,628.167 547,627.5C 548.602,620.967 551.269,614.967 555,609.5C 555.816,608.177 556.983,607.511 558.5,607.5 Z"/></g>
<g><path style="opacity:1" fill="#81592e" d="M 613.5,569.5 C 606.724,574.067 600.057,578.9 593.5,584C 586.961,591.369 580.294,598.536 573.5,605.5C 570.602,610.434 567.768,615.434 565,620.5C 561.315,630.519 557.149,640.186 552.5,649.5C 553.154,645.338 554.487,641.505 556.5,638C 552.667,635.254 553.334,633.754 558.5,633.5C 557.962,628.576 559.629,624.576 563.5,621.5C 562.975,620.808 562.308,620.308 561.5,620C 564.499,616.134 566.832,611.967 568.5,607.5C 569.552,607.649 570.552,607.483 571.5,607C 571.167,606.667 570.833,606.333 570.5,606C 578.555,598.467 585.555,590.301 591.5,581.5C 593.672,580.199 596.005,579.199 598.5,578.5C 598.281,577.325 598.614,576.325 599.5,575.5C 601.444,574.811 603.444,574.311 605.5,574C 607.005,570.086 609.672,568.586 613.5,569.5 Z"/></g>
<g><path style="opacity:1" fill="#805730" d="M 1025.5,599.5 C 1016.81,595.097 1008.14,590.597 999.5,586C 991.863,584.783 984.53,582.783 977.5,580C 942.816,574.453 909.483,578.62 877.5,592.5C 879.647,589.731 882.314,587.397 885.5,585.5C 891.48,583.9 897.48,582.4 903.5,581C 905.569,580.676 905.902,579.842 904.5,578.5C 906.353,577.24 908.186,577.24 910,578.5C 910.333,577.5 910.667,576.5 911,575.5C 914.461,576.644 917.795,577.644 921,578.5C 926.153,577.42 931.319,576.42 936.5,575.5C 950.172,576.214 963.838,577.047 977.5,578C 984.22,580.24 991.053,582.073 998,583.5C 998.302,581.845 999.636,580.512 1002,579.5C 1004.02,579.8 1004.52,580.633 1003.5,582C 1006.69,582.197 1009.69,583.03 1012.5,584.5C 1013.17,584.167 1013.83,583.833 1014.5,583.5C 1015.5,584.833 1016.5,586.167 1017.5,587.5C 1018.61,586.41 1019.61,586.41 1020.5,587.5C 1018.15,588.012 1016.15,589.012 1014.5,590.5C 1018.18,593.68 1021.84,596.68 1025.5,599.5 Z"/></g>
<g><path style="opacity:1" fill="#ae6c4a" d="M 1031.5,590.5 C 1025.53,587.85 1019.87,584.684 1014.5,581C 1009.09,579.977 1004.09,577.977 999.5,575C 943.918,558.818 892.918,567.651 846.5,601.5C 839.887,608.099 833.887,615.099 828.5,622.5C 827.677,620.545 827.51,618.545 828,616.5C 834.222,610.147 840.055,603.481 845.5,596.5C 846.293,596.931 847.127,597.265 848,597.5C 852.791,594.706 856.958,591.206 860.5,587C 862.5,586.667 864.5,586.333 866.5,586C 866.167,585.667 865.833,585.333 865.5,585C 878.664,578.116 892.33,572.782 906.5,569C 918.429,567.203 930.429,566.203 942.5,566C 943.5,565.5 944.5,565 945.5,564.5C 949.5,565.833 953.5,565.833 957.5,564.5C 963.198,566.109 969.031,567.109 975,567.5C 984.653,567.059 993.653,569.392 1002,574.5C 1003.33,573.833 1004.67,573.167 1006,572.5C 1006.79,575.535 1008.63,577.701 1011.5,579C 1017.3,580.033 1022.96,581.533 1028.5,583.5C 1030.34,585.512 1031.34,587.845 1031.5,590.5 Z"/></g>
<g><path style="opacity:1" fill="#936b3e" d="M 659.5,556.5 C 684.852,554.417 709.852,556.917 734.5,564C 738.404,565.008 741.404,567.174 743.5,570.5C 734.721,566.781 725.721,563.614 716.5,561C 697.645,557.701 678.645,556.201 659.5,556.5 Z"/></g>
<g><path style="opacity:1" fill="#844e2b" d="M 761.5,394.5 C 765.64,393.715 768.973,394.881 771.5,398C 779.942,399.639 787.276,402.139 793.5,405.5C 795.939,408.113 798.772,410.113 802,411.5C 804.269,410.536 806.102,411.202 807.5,413.5C 817.967,417.616 828.633,421.116 839.5,424C 840.833,425 842.167,426 843.5,427C 847.152,427.499 850.818,427.665 854.5,427.5C 854.5,428.5 854.5,429.5 854.5,430.5C 857.697,430.973 860.863,431.639 864,432.5C 876.997,439.664 890.831,444.83 905.5,448C 909.629,451.119 914.296,452.786 919.5,453C 931.204,457.541 943.038,461.707 955,465.5C 955.333,465.167 955.667,464.833 956,464.5C 962.723,467.549 969.223,471.049 975.5,475C 977.167,475.333 978.833,475.667 980.5,476C 983.151,478.793 986.485,480.127 990.5,480C 998.257,486.43 1006.76,491.597 1016,495.5C 1016.33,495.167 1016.67,494.833 1017,494.5C 1017.5,495.5 1018,496.5 1018.5,497.5C 1023.11,499.137 1027.44,501.304 1031.5,504C 1031.17,504.333 1030.83,504.667 1030.5,505C 1032.83,506.5 1035.17,508 1037.5,509.5C 1038.8,512.124 1040.46,514.457 1042.5,516.5C 1027.82,507.163 1013.16,497.83 998.5,488.5C 988.492,484.163 978.826,479.329 969.5,474C 936.873,461.338 903.873,449.672 870.5,439C 869.167,438 867.833,437 866.5,436C 834.496,426.457 803.496,415.123 773.5,402C 769.379,399.585 765.379,397.085 761.5,394.5 Z"/></g>
<g><path style="opacity:1" fill="#704723" d="M 619.5,832.5 C 620.684,831.312 620.684,830.145 619.5,829C 615.658,826.998 611.658,825.498 607.5,824.5C 607.5,823.5 607.5,822.5 607.5,821.5C 609.675,821.318 611.675,820.651 613.5,819.5C 615.029,819.529 616.196,820.196 617,821.5C 617.956,820.106 619.289,819.439 621,819.5C 638.511,822.529 656.011,823.529 673.5,822.5C 673.833,823.167 674.167,823.833 674.5,824.5C 681.439,821.3 688.605,819.966 696,820.5C 696.085,822.085 696.251,823.418 696.5,824.5C 697.192,823.975 697.692,823.308 698,822.5C 699.734,823.249 701.567,823.749 703.5,824C 702.088,825.306 700.421,826.14 698.5,826.5C 692.547,824.592 691.547,825.758 695.5,830C 696.833,830.333 698.167,830.667 699.5,831C 682.633,831.403 665.8,832.903 649,835.5C 639.232,833.89 629.398,832.89 619.5,832.5 Z"/></g>
<g><path style="opacity:1" fill="#875f34" d="M 801.5,807.5 C 804.005,809.715 807.005,810.881 810.5,811C 812.439,811.908 813.439,813.408 813.5,815.5C 817.619,815.199 819.619,817.199 819.5,821.5C 821.996,822.58 824.33,823.914 826.5,825.5C 828.006,826.747 829.506,826.747 831,825.5C 831.879,828.346 833.546,829.013 836,827.5C 837.53,828.92 839.363,829.92 841.5,830.5C 843.734,832.381 845.067,834.715 845.5,837.5C 849.851,838.17 854.184,839.004 858.5,840C 863.379,842.641 868.379,844.974 873.5,847C 877.558,847.767 881.558,847.6 885.5,846.5C 886.696,846.846 886.696,847.346 885.5,848C 889.685,848.758 893.685,850.091 897.5,852C 904.819,851.483 911.486,853.15 917.5,857C 930.215,859.453 942.882,861.12 955.5,862C 966.161,862.5 976.828,862.667 987.5,862.5C 971.339,863.662 955.005,863.828 938.5,863C 906.173,857.754 874.839,849.421 844.5,838C 833.168,832.337 822.502,825.671 812.5,818C 808.376,814.945 804.709,811.445 801.5,807.5 Z"/></g>
<g><path style="opacity:0.651" fill="#887461" d="M 1279.5,799.5 C 1282.76,805.589 1284.26,812.255 1284,819.5C 1284.17,825.333 1284.33,831.167 1284.5,837C 1284.5,843.207 1283.83,849.04 1282.5,854.5C 1283.2,836.042 1282.2,817.708 1279.5,799.5 Z"/></g>
<g><path style="opacity:1" fill="#734924" d="M 814.5,782.5 C 812.188,784.636 809.688,786.636 807,788.5C 806.333,789.5 806.333,790.5 807,791.5C 818.316,803.334 831.149,813.001 845.5,820.5C 847.261,823.431 849.594,825.931 852.5,828C 856.896,828.746 861.23,829.746 865.5,831C 869.192,833.513 873.192,835.513 877.5,837C 887.99,839.952 898.657,842.119 909.5,843.5C 922.516,845.447 935.516,847.614 948.5,850C 969.058,851.646 989.392,850.312 1009.5,846C 1022,843.347 1031.83,836.847 1039,826.5C 1040.25,823.923 1040.58,821.257 1040,818.5C 1035.6,813.734 1030.77,809.567 1025.5,806C 1025.91,805.055 1026.57,804.388 1027.5,804C 1037.93,802.631 1045.76,806.464 1051,815.5C 1052.67,830.171 1047.17,841.337 1034.5,849C 1019.83,856.706 1004.17,861.206 987.5,862.5C 976.828,862.667 966.161,862.5 955.5,862C 942.882,861.12 930.215,859.453 917.5,857C 911.486,853.15 904.819,851.483 897.5,852C 893.685,850.091 889.685,848.758 885.5,848C 886.696,847.346 886.696,846.846 885.5,846.5C 881.558,847.6 877.558,847.767 873.5,847C 868.379,844.974 863.379,842.641 858.5,840C 854.184,839.004 849.851,838.17 845.5,837.5C 845.067,834.715 843.734,832.381 841.5,830.5C 839.363,829.92 837.53,828.92 836,827.5C 833.546,829.013 831.879,828.346 831,825.5C 829.506,826.747 828.006,826.747 826.5,825.5C 824.33,823.914 821.996,822.58 819.5,821.5C 819.619,817.199 817.619,815.199 813.5,815.5C 813.439,813.408 812.439,811.908 810.5,811C 807.005,810.881 804.005,809.715 801.5,807.5C 796.802,804.802 793.135,801.135 790.5,796.5C 788.113,798.689 785.447,800.356 782.5,801.5C 782.5,800.5 782.5,799.5 782.5,798.5C 783.552,798.649 784.552,798.483 785.5,798C 785.5,797 785.5,796 785.5,795C 787.676,794.837 789.509,794.004 791,792.5C 790.923,793.738 791.089,794.738 791.5,795.5C 792.251,794.624 792.751,793.624 793,792.5C 793.907,797.96 797.074,800.96 802.5,801.5C 802.5,799.833 802.5,798.167 802.5,796.5C 801.167,796.5 799.833,796.5 798.5,796.5C 798.338,794.473 798.505,792.473 799,790.5C 799.667,789.167 800.333,789.167 801,790.5C 801.423,787.867 802.59,785.701 804.5,784C 802.369,783.457 800.369,782.624 798.5,781.5C 799.333,781.167 800.167,780.833 801,780.5C 804.824,783.589 806.824,782.589 807,777.5C 808.084,778.665 808.917,779.998 809.5,781.5C 811.045,782.452 812.712,782.785 814.5,782.5 Z"/></g>
<g><path style="opacity:1" fill="#8d643a" d="M 845.5,820.5 C 865.068,830.185 885.568,837.185 907,841.5C 908.376,841.684 909.209,842.351 909.5,843.5C 898.657,842.119 887.99,839.952 877.5,837C 873.192,835.513 869.192,833.513 865.5,831C 861.23,829.746 856.896,828.746 852.5,828C 849.594,825.931 847.261,823.431 845.5,820.5 Z"/></g>
<g><path style="opacity:1" fill="#9c734a" d="M 405.5,850.5 C 414.232,857.344 423.899,862.844 434.5,867C 442.219,870.005 450.219,871.171 458.5,870.5C 455.814,871.991 452.814,872.657 449.5,872.5C 443.906,871.386 438.24,870.22 432.5,869C 426.792,866.146 421.125,863.313 415.5,860.5C 411.802,857.468 408.468,854.135 405.5,850.5 Z"/></g>
<g><path style="opacity:1" fill="#b68c5d" d="M 1144.5,817.5 C 1145.96,820.203 1146.8,823.203 1147,826.5C 1147.17,830.833 1147.33,835.167 1147.5,839.5C 1148.23,857.221 1144.89,873.888 1137.5,889.5C 1140.5,878.32 1143,866.987 1145,855.5C 1145.68,842.817 1145.52,830.15 1144.5,817.5 Z"/></g>
<g><path style="opacity:0.8" fill="#856c56" d="M 393.5,861.5 C 395.179,861.892 396.846,862.392 398.5,863C 403.942,871.077 411.609,875.41 421.5,876C 423.311,878.384 425.645,880.051 428.5,881C 436.571,882.894 444.738,884.06 453,884.5C 456.167,884.333 459.333,884.167 462.5,884C 466.437,882.872 470.27,881.372 474,879.5C 475.045,880.373 475.878,881.373 476.5,882.5C 470.196,883.993 463.863,885.326 457.5,886.5C 445.792,887.066 434.458,885.399 423.5,881.5C 411.611,877.602 401.611,870.935 393.5,861.5 Z"/></g>
<g><path style="opacity:0.502" fill="#b0a297" d="M 423.5,881.5 C 434.458,885.399 445.792,887.066 457.5,886.5C 449.638,887.682 441.638,887.516 433.5,886C 429.771,885.156 426.437,883.656 423.5,881.5 Z"/></g>
<g><path style="opacity:0.859" fill="#816a54" d="M 1280.5,868.5 C 1280.66,870.199 1280.49,871.866 1280,873.5C 1276.04,884.947 1270.87,895.614 1264.5,905.5C 1264.39,904.883 1264.06,904.383 1263.5,904C 1264.99,901.596 1266.32,899.096 1267.5,896.5C 1268.32,895.614 1269.32,895.281 1270.5,895.5C 1270.34,893.473 1270.5,891.473 1271,889.5C 1272.53,887.779 1273.53,885.779 1274,883.5C 1274.33,880.167 1274.67,876.833 1275,873.5C 1276.08,870.921 1277.91,869.254 1280.5,868.5 Z"/></g>
<g><path style="opacity:0.076" fill="#fafaf7" d="M 1278.5,776.5 C 1280.6,779.248 1282.43,782.248 1284,785.5C 1286.32,792.472 1288.66,799.472 1291,806.5C 1291.67,825.833 1291.67,845.167 1291,864.5C 1282.37,901.864 1262.21,931.031 1230.5,952C 1222.01,956.25 1213.34,959.917 1204.5,963C 1200.23,963.031 1196.23,964.031 1192.5,966C 1187.5,966.333 1182.5,966.667 1177.5,967C 1176.67,967.915 1175.67,968.581 1174.5,969C 1167.17,969.667 1159.83,969.667 1152.5,969C 1148.85,966.918 1144.85,965.918 1140.5,966C 1133.32,964.383 1126.32,962.05 1119.5,959C 1115.01,955.507 1110.84,951.673 1107,947.5C 1100.79,954.713 1093.62,960.879 1085.5,966C 1079.59,973.288 1072.26,978.622 1063.5,982C 1058.17,986 1052.83,990 1047.5,994C 1032.15,1000.51 1017.15,1007.84 1002.5,1016C 988.11,1020.18 974.11,1025.18 960.5,1031C 952.149,1033.5 943.816,1035.84 935.5,1038C 930.833,1038.33 926.167,1038.67 921.5,1039C 920.167,1039.67 918.833,1040.33 917.5,1041C 908.167,1041.33 898.833,1041.67 889.5,1042C 888.833,1042.67 888.167,1043.33 887.5,1044C 854.833,1044.67 822.167,1044.67 789.5,1044C 788.833,1043.33 788.167,1042.67 787.5,1042C 780.167,1041.67 772.833,1041.33 765.5,1041C 764.328,1040.58 763.328,1039.91 762.5,1039C 755.5,1038.67 748.5,1038.33 741.5,1038C 736.459,1035.9 731.125,1034.9 725.5,1035C 719.836,1032.42 713.836,1031.09 707.5,1031C 706.672,1030.09 705.672,1029.42 704.5,1029C 696.057,1027.92 687.724,1026.59 679.5,1025C 678.833,1024.33 678.167,1023.67 677.5,1023C 672.167,1021.67 666.833,1020.33 661.5,1019C 647.844,1014.02 634.177,1009.02 620.5,1004C 615.134,1002.6 609.801,1001.27 604.5,1000C 601.956,997.907 598.956,996.907 595.5,997C 584.355,991.451 573.355,985.617 562.5,979.5C 563.644,977.9 564.811,976.233 566,974.5C 567.011,975.337 568.178,975.67 569.5,975.5C 580.692,981.865 592.359,986.865 604.5,990.5C 613.134,994.677 622.134,998.177 631.5,1001C 648.752,1005.64 665.752,1010.81 682.5,1016.5C 682.833,1016.5 683.167,1016.5 683.5,1016.5C 741.701,1032.02 801.035,1038.52 861.5,1036C 874.021,1035.65 886.354,1034.82 898.5,1033.5C 916.334,1031.79 934.001,1028.96 951.5,1025C 955.271,1023.48 958.938,1021.81 962.5,1020C 972.532,1018 982.198,1015 991.5,1011C 994.239,1009.97 996.572,1008.47 998.5,1006.5C 1021.48,997.828 1043.15,986.495 1063.5,972.5C 1073,967.014 1081.66,960.348 1089.5,952.5C 1095.33,947.503 1100.66,942.003 1105.5,936C 1106.09,935.536 1106.76,935.369 1107.5,935.5C 1108.17,936.5 1108.83,937.5 1109.5,938.5C 1111.1,943.767 1114.43,947.433 1119.5,949.5C 1120.9,950.931 1122.57,952.098 1124.5,953C 1147.99,961.966 1171.66,962.799 1195.5,955.5C 1209.91,951.716 1223.25,945.716 1235.5,937.5C 1242.78,932.385 1249.28,926.385 1255,919.5C 1258.93,915.295 1262.1,910.628 1264.5,905.5C 1270.87,895.614 1276.04,884.947 1280,873.5C 1280.49,871.866 1280.66,870.199 1280.5,868.5C 1281.64,864.036 1282.31,859.37 1282.5,854.5C 1283.83,849.04 1284.5,843.207 1284.5,837C 1284.33,831.167 1284.17,825.333 1284,819.5C 1284.26,812.255 1282.76,805.589 1279.5,799.5C 1278.25,792.871 1276.25,786.538 1273.5,780.5C 1274.71,779.766 1276.04,779.433 1277.5,779.5C 1277.26,778.209 1277.6,777.209 1278.5,776.5 Z"/></g>
<g><path style="opacity:1" fill="#d5a877" d="M 1269.5,865.5 C 1266.98,873.556 1264.15,881.556 1261,889.5C 1255.98,897.181 1250.98,904.848 1246,912.5C 1237.5,919 1229,925.5 1220.5,932C 1212.07,936.057 1203.41,939.224 1194.5,941.5C 1172.9,945.067 1152.24,942.234 1132.5,933C 1131.47,931.373 1130.13,930.207 1128.5,929.5C 1122.48,926.643 1120.32,921.976 1122,915.5C 1126.8,907.898 1131.3,900.231 1135.5,892.5C 1135.04,894.55 1134.37,896.55 1133.5,898.5C 1135.18,902.805 1137.52,906.638 1140.5,910C 1139.1,918.617 1141.76,925.784 1148.5,931.5C 1153.18,931.585 1156.68,933.585 1159,937.5C 1159.33,936.833 1159.67,936.167 1160,935.5C 1162.8,936.211 1165.63,936.878 1168.5,937.5C 1170.75,936.135 1172.75,936.469 1174.5,938.5C 1183.79,936.718 1192.79,934.051 1201.5,930.5C 1202.55,930.68 1203.55,931.013 1204.5,931.5C 1206.22,930.045 1208.22,929.212 1210.5,929C 1209.38,927.956 1208.04,927.29 1206.5,927C 1211.29,926.783 1215.96,925.95 1220.5,924.5C 1221.84,921.623 1223.67,919.956 1226,919.5C 1226.48,918.552 1226.65,917.552 1226.5,916.5C 1228.48,916.617 1230.15,915.95 1231.5,914.5C 1238.75,906.043 1246.58,897.376 1255,888.5C 1255.51,886.122 1256.18,883.788 1257,881.5C 1257.33,882.167 1257.67,882.833 1258,883.5C 1259.04,879.574 1261.04,876.241 1264,873.5C 1264.78,871.567 1264.28,870.067 1262.5,869C 1263.42,867.244 1264.59,867.077 1266,868.5C 1267.17,867.456 1268.34,866.456 1269.5,865.5 Z"/></g>
<g><path style="opacity:0.831" fill="#8b7664" d="M 1264.5,905.5 C 1262.1,910.628 1258.93,915.295 1255,919.5C 1249.28,926.385 1242.78,932.385 1235.5,937.5C 1235.35,936.448 1235.52,935.448 1236,934.5C 1243.09,929.993 1248.59,923.993 1252.5,916.5C 1253.69,915.571 1255.02,915.238 1256.5,915.5C 1256.35,914.448 1256.52,913.448 1257,912.5C 1259.04,911.421 1260.38,909.754 1261,907.5C 1261.82,906.177 1262.98,905.511 1264.5,905.5 Z"/></g>
<g><path style="opacity:0.861" fill="#7e5e42" d="M 476.5,882.5 C 478,884.184 479.667,885.851 481.5,887.5C 487.294,898.948 493.628,909.448 500.5,919C 504.94,920.272 507.94,923.106 509.5,927.5C 511.5,928.5 513.5,929.5 515.5,930.5C 516.695,932.751 517.695,935.085 518.5,937.5C 522.215,938.691 525.548,940.357 528.5,942.5C 528.281,943.675 528.614,944.675 529.5,945.5C 532.466,947.566 535.633,949.233 539,950.5C 539.483,951.448 539.649,952.448 539.5,953.5C 538.167,953.167 536.833,952.833 535.5,952.5C 508.616,935.28 488.95,911.947 476.5,882.5 Z"/></g>
<g><path style="opacity:1" fill="#936840" d="M 1128.5,929.5 C 1130.13,930.207 1131.47,931.373 1132.5,933C 1152.24,942.234 1172.9,945.067 1194.5,941.5C 1192.75,942.473 1191.25,943.807 1190,945.5C 1177.91,944.677 1165.74,944.177 1153.5,944C 1149.35,943.339 1145.35,942.173 1141.5,940.5C 1140.83,940.833 1140.17,941.167 1139.5,941.5C 1136.78,938.576 1133.61,936.243 1130,934.5C 1129.65,932.753 1129.15,931.086 1128.5,929.5 Z"/></g>
<g><path style="opacity:0.996" fill="#735338" d="M 1107.5,935.5 C 1106.76,935.369 1106.09,935.536 1105.5,936C 1100.66,942.003 1095.33,947.503 1089.5,952.5C 1086.58,954.048 1083.58,955.548 1080.5,957C 1074.95,962.384 1069.29,967.551 1063.5,972.5C 1043.15,986.495 1021.48,997.828 998.5,1006.5C 1000.03,1003.26 1002.7,1001.76 1006.5,1002C 1013.7,997.588 1021.36,993.921 1029.5,991C 1031.98,987.594 1035.31,986.094 1039.5,986.5C 1039.28,985.325 1039.61,984.325 1040.5,983.5C 1042.83,982.167 1045.17,980.833 1047.5,979.5C 1048.39,978.675 1048.72,977.675 1048.5,976.5C 1051.57,975.978 1054.57,975.145 1057.5,974C 1056.54,972.853 1056.88,971.853 1058.5,971C 1060.5,970.167 1062.5,969.333 1064.5,968.5C 1068.38,964.454 1072.71,960.954 1077.5,958C 1076.46,956.383 1075.3,956.216 1074,957.5C 1073.83,957.167 1073.67,956.833 1073.5,956.5C 1074.5,955.833 1075.5,955.167 1076.5,954.5C 1076,954.167 1075.5,953.833 1075,953.5C 1073.33,954.5 1071.67,955.5 1070,956.5C 1069.5,956.333 1069,956.167 1068.5,956C 1069.25,955.329 1069.59,954.496 1069.5,953.5C 1073.85,950.664 1078.52,949.997 1083.5,951.5C 1088.2,950.957 1091.2,948.457 1092.5,944C 1090.16,938.06 1091.49,936.56 1096.5,939.5C 1098.06,938.055 1099.4,936.389 1100.5,934.5C 1101.94,933.696 1103.44,933.029 1105,932.5C 1106.75,932.748 1107.58,933.748 1107.5,935.5 Z"/></g>
<g><path style="opacity:0.635" fill="#9a8370" d="M 535.5,952.5 C 536.833,952.833 538.167,953.167 539.5,953.5C 541.189,954.304 542.855,955.304 544.5,956.5C 544.291,957.086 543.957,957.586 543.5,958C 545.436,958.813 547.436,959.313 549.5,959.5C 552.373,962.954 556.04,965.454 560.5,967C 564.008,969.048 567.008,971.548 569.5,974.5C 561.386,970.223 553.386,965.723 545.5,961C 541.944,958.265 538.61,955.432 535.5,952.5 Z"/></g>
<g><path style="opacity:0.7" fill="#998878" d="M 1119.5,949.5 C 1128.86,953.101 1138.53,955.935 1148.5,958C 1158.83,958.667 1169.17,958.667 1179.5,958C 1184.69,956.202 1190.02,955.369 1195.5,955.5C 1171.66,962.799 1147.99,961.966 1124.5,953C 1122.57,952.098 1120.9,950.931 1119.5,949.5 Z"/></g>
<g><path style="opacity:0.954" fill="#77583e" d="M 1235.5,937.5 C 1223.25,945.716 1209.91,951.716 1195.5,955.5C 1190.02,955.369 1184.69,956.202 1179.5,958C 1169.17,958.667 1158.83,958.667 1148.5,958C 1138.53,955.935 1128.86,953.101 1119.5,949.5C 1114.43,947.433 1111.1,943.767 1109.5,938.5C 1112.16,942.016 1115.5,944.85 1119.5,947C 1121.83,947.333 1124.17,947.667 1126.5,948C 1132.6,951.187 1138.93,953.853 1145.5,956C 1151.75,956.188 1157.91,956.688 1164,957.5C 1175.83,956.335 1187.66,955.001 1199.5,953.5C 1199.5,952.5 1199.5,951.5 1199.5,950.5C 1201.2,950.66 1202.87,950.494 1204.5,950C 1214.77,945.527 1225.11,941.36 1235.5,937.5 Z"/></g>
<g><path style="opacity:0.737" fill="#928071" d="M 1089.5,952.5 C 1081.66,960.348 1073,967.014 1063.5,972.5C 1069.29,967.551 1074.95,962.384 1080.5,957C 1083.58,955.548 1086.58,954.048 1089.5,952.5 Z"/></g>
<g><path style="opacity:0.861" fill="#7d6046" d="M 549.5,959.5 C 554.142,960.638 558.809,962.805 563.5,966C 568.925,970.962 574.925,974.795 581.5,977.5C 588.656,981.821 596.989,985.154 606.5,987.5C 608.397,989.017 610.397,990.35 612.5,991.5C 609.833,991.167 607.167,990.833 604.5,990.5C 592.359,986.865 580.692,981.865 569.5,975.5C 569.5,975.167 569.5,974.833 569.5,974.5C 567.008,971.548 564.008,969.048 560.5,967C 556.04,965.454 552.373,962.954 549.5,959.5 Z"/></g>
<g><path style="opacity:1" fill="#6f4723" d="M 1069.5,953.5 C 1069.59,954.496 1069.25,955.329 1068.5,956C 1069,956.167 1069.5,956.333 1070,956.5C 1071.67,955.5 1073.33,954.5 1075,953.5C 1075.5,953.833 1076,954.167 1076.5,954.5C 1075.5,955.167 1074.5,955.833 1073.5,956.5C 1073.67,956.833 1073.83,957.167 1074,957.5C 1075.3,956.216 1076.46,956.383 1077.5,958C 1072.71,960.954 1068.38,964.454 1064.5,968.5C 1062.5,969.333 1060.5,970.167 1058.5,971C 1056.88,971.853 1056.54,972.853 1057.5,974C 1054.57,975.145 1051.57,975.978 1048.5,976.5C 1048.72,977.675 1048.39,978.675 1047.5,979.5C 1045.17,980.833 1042.83,982.167 1040.5,983.5C 1039.61,984.325 1039.28,985.325 1039.5,986.5C 1035.31,986.094 1031.98,987.594 1029.5,991C 1021.36,993.921 1013.7,997.588 1006.5,1002C 1002.7,1001.76 1000.03,1003.26 998.5,1006.5C 993.131,1006.69 988.131,1008.19 983.5,1011C 976.693,1012.18 970.36,1014.51 964.5,1018C 960.065,1017.88 956.065,1019.05 952.5,1021.5C 919.272,1031.46 885.272,1035.29 850.5,1033C 848.942,1033.21 847.609,1033.71 846.5,1034.5C 830.521,1035.59 814.521,1035.76 798.5,1035C 795.363,1034.4 792.363,1033.4 789.5,1032C 759.171,1029.96 729.171,1025.3 699.5,1018C 694.207,1017.02 688.874,1016.52 683.5,1016.5C 683.167,1016.5 682.833,1016.5 682.5,1016.5C 670.078,1009.69 656.745,1004.85 642.5,1002C 632.273,998.804 622.273,995.304 612.5,991.5C 610.397,990.35 608.397,989.017 606.5,987.5C 596.989,985.154 588.656,981.821 581.5,977.5C 580.766,976.292 580.433,974.959 580.5,973.5C 576.759,974.401 574.759,973.068 574.5,969.5C 573.5,969.5 572.5,969.5 571.5,969.5C 571.643,965.695 573.643,964.029 577.5,964.5C 581.948,966.378 586.614,967.711 591.5,968.5C 663.326,1001.3 738.993,1019.3 818.5,1022.5C 836.995,1023.66 855.662,1023.83 874.5,1023C 876.382,1022.8 878.048,1022.3 879.5,1021.5C 903.761,1020.77 927.761,1017.94 951.5,1013C 974.408,1004.25 997.074,994.584 1019.5,984C 1036.72,974.564 1053.39,964.398 1069.5,953.5 Z"/></g>
<g><path style="opacity:0.765" fill="#917966" d="M 604.5,990.5 C 607.167,990.833 609.833,991.167 612.5,991.5C 622.273,995.304 632.273,998.804 642.5,1002C 656.745,1004.85 670.078,1009.69 682.5,1016.5C 665.752,1010.81 648.752,1005.64 631.5,1001C 622.134,998.177 613.134,994.677 604.5,990.5 Z"/></g>
<g><path style="opacity:0.918" fill="#755942" d="M 998.5,1006.5 C 996.572,1008.47 994.239,1009.97 991.5,1011C 982.198,1015 972.532,1018 962.5,1020C 958.938,1021.81 955.271,1023.48 951.5,1025C 934.001,1028.96 916.334,1031.79 898.5,1033.5C 881.173,1034.12 863.84,1034.45 846.5,1034.5C 847.609,1033.71 848.942,1033.21 850.5,1033C 885.272,1035.29 919.272,1031.46 952.5,1021.5C 956.065,1019.05 960.065,1017.88 964.5,1018C 970.36,1014.51 976.693,1012.18 983.5,1011C 988.131,1008.19 993.131,1006.69 998.5,1006.5 Z"/></g>
<g><path style="opacity:0.78" fill="#8c7562" d="M 683.5,1016.5 C 688.874,1016.52 694.207,1017.02 699.5,1018C 729.171,1025.3 759.171,1029.96 789.5,1032C 792.363,1033.4 795.363,1034.4 798.5,1035C 814.521,1035.76 830.521,1035.59 846.5,1034.5C 863.84,1034.45 881.173,1034.12 898.5,1033.5C 886.354,1034.82 874.021,1035.65 861.5,1036C 801.035,1038.52 741.701,1032.02 683.5,1016.5 Z"/></g>
<g><path style="opacity:1" fill="#987145" d="M 879.5,1021.5 C 878.048,1022.3 876.382,1022.8 874.5,1023C 855.662,1023.83 836.995,1023.66 818.5,1022.5C 838.84,1022.48 859.173,1022.15 879.5,1021.5 Z"/></g>
</svg>
